<?xml version="1.0" standalone="no"?>
<!DOCTYPE svg PUBLIC "-//W3C//DTD SVG 20010904//EN"
 "http://www.w3.org/TR/2001/REC-SVG-20010904/DTD/svg10.dtd">
<svg version="1.0" xmlns="http://www.w3.org/2000/svg"
 width="1080.000000pt" height="1080.000000pt" viewBox="0 0 1080.000000 1080.000000"
 preserveAspectRatio="xMidYMid meet">
<metadata>
Created by potrace 1.14, written by Peter Selinger 2001-2017
</metadata>
<g transform="translate(0.000000,1080.000000) scale(0.100000,-0.100000)"
fill="#000000" stroke="none">
<path d="M6290 9440 c0 -6 -5 -8 -11 -5 -5 4 -19 -1 -30 -11 -10 -9 -19 -13
-19 -8 0 5 -4 4 -8 -1 -7 -10 -118 -85 -126 -85 -3 0 -37 -22 -78 -48 -40 -27
-89 -57 -108 -68 -19 -10 -37 -22 -40 -25 -3 -3 -20 -14 -37 -24 -18 -11 -33
-23 -33 -27 0 -4 -7 -4 -17 -1 -11 4 -14 3 -9 -5 6 -11 -5 -17 -26 -13 -5 0
-8 -3 -8 -9 0 -5 -16 -17 -35 -26 -19 -9 -35 -21 -35 -26 0 -5 -4 -6 -10 -3
-5 3 -10 2 -10 -4 0 -6 -11 -13 -25 -17 -14 -3 -25 -10 -25 -15 0 -5 -7 -9
-15 -9 -8 0 -15 -4 -15 -10 0 -5 -5 -10 -10 -10 -6 0 -20 -9 -32 -20 -12 -10
-25 -17 -30 -14 -4 3 -8 0 -8 -5 0 -6 -7 -11 -15 -11 -8 0 -15 -5 -15 -11 0
-5 -4 -7 -10 -4 -5 3 -10 2 -10 -3 0 -5 -16 -17 -35 -26 -19 -9 -35 -21 -35
-27 0 -6 -4 -7 -10 -4 -5 3 -10 1 -10 -5 0 -6 -4 -8 -10 -5 -5 3 -10 3 -10 -2
0 -4 -27 -24 -60 -43 -33 -19 -60 -38 -60 -42 0 -5 -5 -8 -10 -8 -6 0 -29 -12
-53 -27 -23 -15 -50 -32 -59 -38 -90 -55 -115 -71 -127 -82 -7 -8 -21 -11 -29
-8 -9 3 -13 3 -9 -1 6 -7 -84 -74 -99 -74 -4 0 -23 -12 -43 -27 -20 -16 -38
-28 -41 -28 -3 0 -19 -10 -37 -23 -17 -12 -36 -22 -41 -22 -5 0 -13 -7 -16
-16 -3 -8 -10 -13 -15 -10 -5 3 -20 -5 -33 -17 -14 -13 -31 -21 -38 -19 -7 3
-10 0 -6 -7 4 -6 3 -11 -3 -11 -16 0 -131 -72 -131 -82 0 -5 -4 -7 -9 -4 -5 3
-14 -1 -21 -9 -7 -8 -16 -12 -21 -9 -5 3 -9 1 -9 -3 0 -9 -49 -41 -64 -41 -5
0 -12 -4 -15 -9 -10 -14 -70 -53 -81 -53 -5 0 -10 -3 -10 -8 0 -7 -30 -25 -62
-38 -10 -3 -18 -10 -18 -15 0 -5 -7 -9 -15 -9 -9 0 -18 -7 -21 -15 -4 -8 -10
-13 -14 -10 -5 3 -14 -1 -22 -8 -20 -20 -92 -62 -100 -59 -5 1 -8 -3 -8 -9 0
-5 -4 -8 -9 -5 -5 3 -11 0 -14 -7 -2 -7 -22 -21 -43 -32 -22 -11 -41 -22 -44
-25 -12 -13 -70 -51 -70 -46 0 3 -9 -3 -20 -14 -11 -11 -27 -20 -35 -20 -8 0
-15 -4 -15 -10 0 -5 -7 -10 -15 -10 -9 0 -18 -7 -21 -15 -4 -8 -10 -13 -14
-10 -4 3 -13 -1 -19 -9 -7 -8 -23 -17 -38 -21 -14 -3 -23 -9 -19 -12 3 -3 -11
-15 -32 -26 -20 -10 -56 -32 -80 -48 -24 -16 -47 -29 -53 -29 -5 0 -9 -4 -9
-10 0 -5 -7 -10 -15 -10 -8 0 -15 -3 -15 -7 0 -5 -18 -17 -40 -27 -22 -11 -40
-23 -40 -28 0 -5 -4 -6 -10 -3 -5 3 -10 2 -10 -3 0 -5 -20 -20 -45 -33 -25
-13 -45 -28 -45 -32 0 -5 -4 -5 -10 -2 -5 3 -10 2 -10 -2 0 -5 -17 -17 -37
-28 -21 -11 -40 -23 -43 -26 -3 -3 -20 -14 -37 -23 -18 -9 -33 -21 -33 -27 0
-6 -3 -8 -8 -5 -4 2 -26 -9 -50 -25 -23 -16 -47 -29 -52 -29 -6 0 -10 -4 -10
-9 0 -5 -13 -14 -30 -21 -16 -7 -30 -16 -30 -20 0 -8 -39 -23 -53 -21 -5 1 -6
-3 -3 -8 3 -5 -8 -14 -24 -21 -17 -7 -30 -17 -30 -22 0 -5 -4 -6 -10 -3 -5 3
-10 1 -10 -5 0 -6 -4 -8 -10 -5 -5 3 -10 3 -10 -2 0 -4 -37 -30 -82 -57 -46
-28 -93 -59 -105 -70 -13 -11 -23 -15 -23 -10 0 5 -4 4 -8 -1 -10 -15 -66 -50
-75 -47 -4 1 -10 -5 -13 -13 -3 -8 -10 -12 -15 -9 -5 3 -9 0 -9 -5 0 -6 -7
-11 -15 -11 -8 0 -15 -4 -15 -10 0 -5 -7 -10 -15 -10 -8 0 -15 -3 -15 -7 0 -5
-18 -17 -40 -27 -22 -11 -40 -23 -40 -28 0 -5 -4 -6 -10 -3 -5 3 -10 2 -10 -4
0 -6 -11 -13 -25 -17 -14 -3 -23 -9 -20 -13 2 -4 -14 -15 -35 -25 -22 -10 -40
-22 -40 -27 0 -5 -6 -9 -14 -9 -8 0 -21 -7 -30 -15 -8 -9 -17 -15 -18 -14 -2
1 -41 -23 -88 -53 -47 -30 -121 -76 -165 -103 -44 -27 -86 -55 -93 -62 -7 -7
-20 -13 -28 -13 -8 0 -17 -7 -20 -15 -4 -8 -15 -15 -25 -15 -10 0 -19 -3 -19
-8 0 -4 -16 -16 -35 -26 -19 -11 -35 -23 -35 -27 0 -5 -7 -5 -17 -2 -11 4 -14
3 -9 -5 6 -11 -5 -17 -26 -13 -5 0 -8 -3 -8 -9 0 -5 -16 -17 -35 -26 -19 -9
-35 -21 -35 -26 0 -5 -5 -6 -10 -3 -6 3 -10 2 -10 -3 0 -9 -50 -37 -62 -34 -5
1 -8 -3 -8 -8 0 -6 -11 -15 -25 -22 -13 -6 -22 -14 -20 -18 3 -5 -2 -11 -11
-14 -8 -3 -12 -10 -9 -16 3 -5 2 -10 -3 -10 -24 0 -36 -93 -21 -167 5 -28 79
-93 144 -128 39 -21 73 -42 76 -48 4 -5 11 -7 17 -3 6 3 12 3 14 -2 6 -14 66
-52 82 -52 9 0 16 -4 16 -8 0 -5 16 -14 35 -22 19 -8 35 -17 35 -22 0 -4 7 -8
15 -8 8 0 24 -9 35 -20 11 -11 25 -20 31 -20 6 0 23 -8 37 -18 15 -11 42 -25
59 -33 18 -8 33 -17 33 -21 0 -5 5 -8 11 -8 10 0 126 -67 139 -80 3 -3 12 -6
20 -8 8 -2 26 -11 40 -20 14 -9 28 -15 33 -14 4 1 7 -3 7 -8 0 -6 7 -10 15
-10 8 0 15 -4 15 -8 0 -4 16 -14 35 -21 19 -7 35 -17 35 -22 0 -6 4 -8 9 -5 5
3 14 -1 21 -9 7 -8 19 -15 26 -15 8 0 14 -4 14 -10 0 -5 6 -10 14 -10 7 0 30
-11 50 -25 20 -13 36 -21 36 -17 0 4 4 3 8 -3 4 -5 27 -21 52 -34 25 -14 48
-29 51 -33 3 -5 12 -10 20 -11 17 -3 91 -47 100 -60 3 -5 10 -9 15 -9 23 -2
44 -11 44 -19 0 -4 16 -13 35 -20 19 -7 35 -16 35 -19 0 -4 16 -12 35 -20 19
-8 35 -17 35 -21 0 -4 11 -10 25 -13 16 -4 23 -11 19 -18 -4 -7 -3 -8 5 -4 6
4 24 -2 40 -13 16 -12 34 -21 40 -21 6 0 11 -4 11 -9 0 -8 21 -17 44 -19 5 0
13 -7 18 -16 5 -9 17 -16 27 -16 11 0 21 -6 24 -14 3 -7 18 -17 34 -21 15 -3
30 -10 33 -14 3 -4 30 -21 60 -38 30 -17 78 -43 105 -58 28 -16 59 -33 70 -39
11 -6 23 -15 27 -21 4 -5 8 -6 8 -2 0 4 10 -1 22 -13 12 -11 30 -20 40 -20 10
0 18 -4 18 -9 0 -5 16 -15 35 -22 19 -7 35 -17 35 -22 0 -4 5 -5 10 -2 5 3 10
2 10 -4 0 -6 11 -13 25 -17 14 -3 25 -10 25 -15 0 -5 6 -9 14 -9 7 0 25 -9 40
-21 14 -11 26 -17 26 -12 0 4 5 0 11 -9 5 -10 19 -18 29 -18 11 0 20 -4 20 -8
0 -5 16 -14 35 -22 19 -8 35 -17 35 -22 0 -4 5 -8 11 -8 9 0 53 -24 189 -104
25 -15 53 -29 63 -33 9 -3 17 -10 17 -15 0 -5 4 -7 9 -4 5 3 14 -1 21 -9 7 -8
18 -15 26 -15 7 0 18 -8 23 -18 6 -9 11 -13 11 -8 0 4 11 1 25 -8 14 -9 25
-13 25 -9 0 5 4 3 8 -3 4 -7 24 -21 45 -33 20 -11 54 -30 75 -42 20 -12 43
-26 50 -31 6 -6 12 -7 12 -3 0 4 6 2 13 -4 8 -6 17 -8 20 -4 4 3 7 2 7 -4 0
-11 84 -8 110 3 8 4 17 8 20 8 3 1 26 16 53 34 26 18 47 29 47 25 0 -4 4 -3 8
2 11 15 70 55 81 55 6 0 15 8 20 17 6 10 11 14 11 10 0 -4 27 10 59 33 33 22
63 40 66 40 3 0 18 9 33 19 25 18 117 77 207 133 22 14 45 27 50 29 6 2 17 9
25 16 8 7 18 13 23 13 4 0 16 8 26 18 37 33 56 47 59 44 1 -2 33 16 70 40 37
23 70 41 75 40 4 -1 7 3 7 9 0 5 14 15 30 20 17 6 30 14 30 19 0 4 14 13 30
20 17 7 30 16 30 21 0 5 11 11 25 15 14 3 25 10 25 15 0 5 6 9 13 9 7 0 22 7
32 15 52 40 141 93 149 88 5 -4 6 -1 2 5 -4 7 -1 12 7 12 7 0 22 8 33 18 10 9
31 23 47 29 15 7 27 18 27 24 0 6 5 9 12 7 15 -5 75 50 93 86 9 16 18 42 21
59 2 17 7 34 10 39 3 4 0 8 -7 8 -7 0 -10 3 -6 6 3 4 0 22 -8 40 -8 19 -12 34
-9 34 12 0 -56 60 -86 75 -33 17 -130 29 -130 15 0 -3 -10 -7 -22 -7 -13 -1
-24 -7 -26 -13 -2 -5 -9 -10 -17 -10 -7 0 -18 -7 -25 -15 -7 -8 -16 -13 -20
-10 -4 3 -10 -2 -14 -10 -3 -8 -10 -15 -15 -15 -10 0 -151 -87 -177 -109 -7
-6 -15 -7 -18 -4 -3 4 -6 1 -6 -5 0 -7 -7 -12 -15 -12 -8 0 -15 -4 -15 -10 0
-5 -7 -10 -15 -10 -7 0 -19 -8 -24 -17 -6 -10 -11 -15 -11 -10 0 4 -24 -8 -52
-28 -29 -19 -58 -35 -64 -35 -7 0 -15 -7 -18 -16 -3 -8 -10 -12 -16 -9 -6 3
-13 -1 -16 -9 -3 -9 -12 -16 -20 -16 -8 0 -14 -5 -14 -11 0 -5 -4 -7 -10 -4
-5 3 -10 2 -10 -3 0 -5 -8 -13 -17 -16 -37 -13 -73 -37 -73 -48 0 -6 -3 -9 -6
-5 -4 3 -21 -5 -39 -18 -17 -14 -36 -25 -42 -25 -6 0 -21 -10 -35 -22 -14 -13
-32 -24 -39 -26 -8 -2 -17 -10 -22 -17 -4 -8 -15 -11 -24 -8 -11 4 -14 3 -9
-5 4 -7 2 -12 -3 -12 -6 0 -13 0 -16 0 -3 0 -14 -9 -25 -20 -11 -11 -27 -20
-35 -20 -8 0 -15 -3 -15 -7 0 -7 -58 -46 -70 -47 -3 -1 -16 -11 -30 -24 -13
-12 -30 -20 -36 -18 -7 3 -15 -1 -17 -9 -3 -7 -26 -23 -51 -36 -25 -12 -46
-27 -46 -31 0 -5 -4 -6 -10 -3 -5 3 -10 2 -10 -3 0 -4 -18 -18 -40 -30 -34
-18 -42 -19 -54 -7 -7 8 -16 11 -20 8 -3 -4 -6 -1 -6 5 0 7 -9 12 -21 12 -11
0 -17 5 -14 10 3 6 0 10 -8 10 -8 0 -31 11 -51 25 -20 13 -36 22 -36 19 0 -3
-12 4 -26 15 -15 12 -33 21 -40 21 -8 0 -14 4 -14 9 0 5 -10 13 -22 17 -13 4
-34 15 -47 25 -13 10 -27 16 -32 13 -5 -3 -9 0 -9 5 0 6 -7 11 -15 11 -8 0
-15 5 -15 10 0 6 -5 10 -10 10 -6 0 -28 11 -50 25 -22 14 -40 22 -40 18 0 -5
-4 -3 -8 2 -9 12 -61 44 -84 52 -10 3 -18 9 -18 13 0 6 -37 21 -49 19 -2 0 -7
3 -10 9 -3 5 -27 20 -52 34 -86 48 -94 53 -101 63 -4 5 -10 6 -14 3 -3 -4 -15
2 -27 13 -11 10 -27 19 -34 19 -7 0 -13 5 -13 11 0 5 -4 7 -10 4 -5 -3 -10 -1
-10 4 0 6 -7 11 -15 11 -8 0 -15 5 -15 10 0 6 -9 10 -20 10 -11 0 -20 3 -20 8
0 4 -15 13 -32 21 -18 8 -35 17 -38 20 -8 9 -82 51 -113 64 -15 6 -27 15 -27
19 0 4 -6 8 -14 8 -7 0 -19 6 -26 14 -6 8 -18 12 -26 9 -9 -3 -14 1 -14 13 0
9 -3 15 -6 11 -3 -3 -28 8 -55 24 -28 16 -54 29 -59 29 -6 0 -10 3 -10 8 0 4
-20 16 -45 27 -25 11 -45 23 -45 26 0 4 -12 12 -27 18 -35 13 -86 43 -95 56
-5 7 -8 7 -8 0 0 -5 -7 -1 -15 9 -8 11 -15 17 -15 13 0 -3 -23 7 -50 23 -28
17 -55 30 -60 30 -6 0 -10 5 -10 11 0 5 -4 7 -10 4 -5 -3 -10 -3 -10 2 0 4
-15 14 -32 22 -18 8 -35 17 -38 20 -5 6 -36 24 -109 63 -23 12 -41 26 -41 30
0 5 -4 7 -9 4 -5 -3 -19 2 -32 12 -13 10 -39 24 -56 31 -18 8 -33 16 -33 20 0
3 -15 12 -32 20 -18 8 -35 17 -38 20 -3 3 -25 17 -50 30 -80 43 -84 46 -98 59
-7 7 -18 10 -23 7 -5 -4 -9 -2 -9 3 0 5 -14 15 -30 22 -17 7 -30 17 -30 22 0
5 -4 7 -9 4 -5 -3 -19 2 -32 12 -21 15 -51 32 -114 66 -11 6 -28 17 -38 25 -9
8 -20 11 -23 8 -4 -3 -13 0 -20 8 -18 17 -8 45 16 45 10 0 20 3 22 8 4 10 85
62 96 62 5 0 17 9 27 20 10 11 22 17 26 14 5 -3 9 -1 9 3 0 5 26 24 57 42 32
19 60 37 63 40 3 4 22 15 43 26 20 11 37 23 37 27 0 5 6 8 14 8 7 0 19 7 26
15 7 9 15 13 17 11 3 -3 10 0 17 5 23 20 146 98 146 92 0 -3 9 4 19 16 11 12
21 21 23 19 2 -1 26 12 53 30 28 18 53 32 57 32 4 0 19 12 34 25 15 14 30 22
35 19 5 -3 9 -2 9 3 0 10 62 47 73 45 4 -1 10 5 13 13 4 8 12 15 20 15 8 0 14
5 14 11 0 5 5 7 10 4 6 -3 10 -1 10 4 0 6 7 11 15 11 8 0 15 5 15 10 0 6 7 10
15 10 8 0 15 5 15 11 0 5 4 7 10 4 5 -3 10 -1 10 4 0 6 7 11 15 11 8 0 15 5
15 10 0 6 6 10 13 10 7 0 23 9 35 20 12 12 22 18 22 15 0 -3 15 5 33 19 19 14
37 23 40 19 4 -3 7 1 7 11 0 9 4 15 9 11 6 -3 20 5 32 17 12 13 19 17 14 10
-6 -11 -3 -11 14 0 12 7 21 16 21 19 0 4 14 12 30 19 17 7 30 17 30 22 0 5 4
7 9 4 5 -3 12 1 15 10 3 8 10 12 16 9 5 -3 10 -1 10 6 0 7 3 10 6 6 3 -3 15 3
27 14 11 10 27 19 34 19 7 0 13 5 13 10 0 6 7 10 15 10 8 0 15 5 15 11 0 5 4
8 9 5 5 -4 11 -1 13 6 6 17 46 17 53 0 3 -8 8 -12 11 -9 4 3 13 -1 21 -9 8 -8
18 -12 23 -9 4 3 11 -2 14 -11 3 -8 10 -12 16 -9 5 3 10 2 10 -4 0 -5 10 -13
23 -17 12 -4 33 -15 46 -25 13 -10 27 -16 32 -13 5 3 9 0 9 -5 0 -6 7 -11 15
-11 9 0 18 -6 21 -14 3 -9 12 -12 21 -9 11 4 14 2 9 -5 -6 -11 -2 -13 19 -12
3 1 13 -6 21 -15 9 -8 19 -13 24 -10 5 3 10 1 12 -3 3 -8 35 -27 143 -86 11
-6 22 -13 25 -17 3 -3 22 -13 42 -22 20 -10 40 -22 43 -27 4 -6 11 -8 16 -5 5
4 9 2 9 -2 0 -5 22 -20 50 -34 27 -13 50 -27 50 -31 0 -5 7 -8 16 -8 9 0 12
-5 8 -12 -4 -6 -3 -8 3 -5 11 7 93 -34 126 -61 9 -8 17 -11 17 -6 0 5 4 5 8
-1 8 -12 80 -54 105 -62 9 -3 17 -10 17 -15 0 -5 5 -6 10 -3 6 3 10 2 10 -3 0
-5 8 -12 18 -16 9 -3 26 -11 37 -18 47 -29 70 -42 77 -43 4 0 15 -7 25 -15 10
-9 33 -22 51 -29 17 -7 32 -18 32 -23 0 -5 5 -6 10 -3 6 3 10 1 10 -6 0 -7 3
-10 6 -6 4 3 25 -6 48 -21 22 -15 55 -34 71 -42 17 -8 32 -17 35 -20 3 -3 30
-18 60 -34 30 -16 58 -34 62 -40 4 -6 8 -7 8 -3 0 5 13 -1 29 -12 16 -12 34
-21 39 -21 6 0 12 -3 14 -7 2 -5 24 -19 51 -32 26 -13 47 -29 47 -34 0 -6 3
-8 6 -4 3 3 24 -5 45 -19 21 -13 43 -24 48 -24 5 0 14 -7 21 -15 7 -8 16 -12
21 -9 5 3 9 1 9 -4 0 -5 8 -12 18 -15 23 -8 75 -40 84 -52 4 -5 8 -6 8 -1 0 5
7 3 15 -4 22 -18 75 -48 108 -61 15 -6 27 -15 27 -19 0 -5 14 -11 30 -15 17
-4 30 -13 30 -21 0 -9 5 -12 10 -9 6 3 10 1 10 -5 0 -6 3 -9 8 -7 12 7 72 -29
64 -39 -4 -5 -3 -6 2 -2 5 4 18 2 30 -4 11 -7 24 -11 29 -10 4 1 7 -2 7 -7 0
-5 14 -14 30 -21 17 -7 30 -17 30 -22 0 -5 4 -7 9 -4 5 4 11 3 13 -1 1 -5 19
-16 38 -25 38 -18 92 -50 100 -58 4 -4 57 -33 145 -79 16 -9 35 -22 43 -29 7
-7 18 -10 23 -7 5 4 9 2 9 -4 0 -5 9 -12 20 -16 17 -5 19 -14 17 -81 -1 -44 2
-74 8 -74 6 0 3 -5 -5 -10 -8 -5 -10 -10 -5 -10 17 0 12 -40 -5 -40 -10 0 -11
-3 -3 -8 8 -5 11 -125 11 -454 0 -245 3 -451 6 -457 4 -6 3 -11 -1 -11 -10 0
-9 -53 2 -69 3 -6 3 -11 -2 -11 -4 0 -8 -11 -8 -25 0 -14 4 -25 9 -25 5 0 3
-7 -4 -15 -10 -12 -10 -15 1 -15 9 0 10 -3 4 -8 -14 -10 -15 -42 -1 -42 6 0 4
-5 -4 -10 -8 -5 -10 -10 -5 -10 17 0 12 -40 -5 -40 -11 0 -12 -2 -2 -8 7 -5
11 -24 9 -50 -2 -23 1 -42 6 -42 5 0 4 -7 -3 -15 -10 -12 -10 -15 1 -15 9 0
10 -3 4 -8 -12 -8 -12 -43 -1 -61 4 -6 3 -11 -1 -11 -10 0 -9 -53 2 -69 3 -6
3 -11 -2 -11 -4 0 -8 -38 -8 -85 0 -47 4 -85 8 -85 5 0 5 -5 1 -12 -10 -16
-11 -108 0 -108 5 0 3 -7 -4 -15 -10 -12 -10 -15 1 -15 9 0 10 -3 4 -8 -12 -8
-12 -43 -1 -61 4 -6 3 -11 -2 -11 -9 0 -7 -64 3 -80 3 -6 2 -10 -4 -10 -7 0
-7 -8 -2 -23 4 -12 7 -30 6 -39 -2 -10 0 -18 5 -18 4 0 13 -13 19 -28 7 -16
21 -35 33 -43 11 -8 26 -18 32 -24 31 -27 127 -32 174 -9 20 10 40 17 45 16 4
-1 7 3 7 8 0 6 7 10 15 10 8 0 15 7 15 15 0 8 3 14 8 14 17 -3 30 2 52 21 13
11 29 20 37 20 7 0 13 4 13 9 0 5 15 16 34 25 18 8 39 22 46 31 7 8 16 12 21
9 5 -3 9 0 9 5 0 6 7 11 15 11 8 0 15 5 15 10 0 6 7 10 15 10 8 0 15 5 15 10
0 6 7 10 15 10 8 0 15 5 15 11 0 5 4 8 9 4 6 -3 14 3 20 12 6 10 11 14 11 10
0 -4 20 6 45 23 25 17 45 28 45 25 0 -3 10 5 23 18 12 14 27 26 32 27 18 4
144 81 156 96 6 7 15 11 20 8 5 -3 9 0 9 6 0 6 4 9 9 6 5 -3 12 1 15 10 3 8
10 13 15 10 5 -4 11 -3 13 1 7 16 69 54 78 48 6 -4 9 -1 8 6 -2 7 3 13 10 14
7 0 17 7 22 15 5 8 10 11 10 6 0 -5 10 0 23 11 12 11 29 23 37 27 33 15 64 36
55 36 -6 0 -6 3 0 8 27 18 52 70 52 105 0 20 3 40 8 45 4 4 5 1 0 -7 -5 -9 -4
-12 3 -7 6 4 9 13 6 21 -4 8 -11 12 -17 8 -6 -4 -7 -1 -1 8 5 8 7 22 5 33 -2
13 1 16 11 11 10 -6 11 -5 1 6 -15 15 -17 53 -3 44 6 -3 7 1 4 9 -3 9 -11 13
-17 9 -6 -4 -7 -1 -1 8 5 8 7 22 5 33 -2 13 1 16 11 11 10 -6 11 -5 1 6 -15
15 -17 53 -3 44 6 -3 7 1 4 9 -3 9 -11 13 -17 9 -6 -4 -7 -1 -1 8 5 8 7 22 5
33 -2 13 1 16 11 11 10 -6 11 -5 1 6 -15 15 -17 53 -3 44 6 -3 7 1 4 9 -3 9
-11 13 -17 9 -6 -4 -7 -1 -1 8 5 8 7 22 5 33 -2 13 1 16 11 11 10 -6 11 -5 1
6 -15 15 -17 53 -3 44 6 -3 7 1 4 9 -3 9 -11 13 -17 9 -6 -4 -7 -1 -1 8 5 8 7
22 5 33 -2 13 1 16 11 11 10 -6 11 -5 1 6 -15 15 -17 53 -3 44 6 -3 7 1 4 9
-3 9 -11 13 -17 9 -6 -4 -7 -1 -1 8 5 8 7 22 5 33 -2 13 1 16 11 11 10 -6 11
-5 1 6 -15 15 -17 53 -3 44 6 -3 7 1 4 9 -3 9 -11 13 -17 9 -6 -4 -7 -1 -1 8
5 8 7 22 5 33 -2 13 1 16 11 11 10 -6 11 -5 1 6 -15 15 -17 53 -3 44 6 -3 7 1
4 9 -3 9 -11 13 -17 9 -6 -4 -7 -1 -1 8 5 8 7 22 5 33 -2 13 1 16 11 11 10 -6
11 -5 1 6 -15 15 -17 53 -3 44 6 -3 7 1 4 9 -3 9 -11 13 -17 9 -6 -4 -7 -1 -1
8 5 8 7 22 5 33 -2 13 1 16 11 11 10 -6 11 -5 1 6 -15 15 -17 53 -3 44 6 -3 7
1 4 9 -3 9 -11 13 -17 9 -6 -4 -7 -1 -1 8 5 8 7 22 5 33 -2 13 1 16 11 11 10
-6 11 -5 1 6 -15 15 -17 53 -3 44 6 -3 7 1 4 9 -3 9 -11 13 -17 9 -6 -4 -7 -1
-1 8 5 8 7 22 5 33 -2 13 1 16 11 11 10 -6 11 -5 1 6 -15 15 -17 53 -3 44 6
-3 7 1 4 9 -3 9 -11 13 -17 9 -6 -4 -7 -1 -1 8 5 8 7 22 5 33 -2 13 1 16 11
11 10 -6 11 -5 1 6 -15 15 -17 53 -3 44 6 -3 7 1 4 9 -3 9 -11 13 -17 9 -6 -4
-7 -1 -1 8 5 8 7 22 5 33 -2 13 1 16 11 11 10 -6 11 -5 1 6 -15 15 -17 53 -3
44 6 -3 7 1 4 9 -3 9 -11 13 -17 9 -6 -4 -7 -1 -1 8 5 8 7 22 5 33 -2 13 1 16
11 11 10 -6 11 -5 1 6 -15 15 -17 53 -3 44 6 -3 7 1 4 9 -3 9 -11 13 -18 9 -8
-5 -8 -3 0 8 12 16 12 29 0 48 -6 10 -5 12 2 7 7 -4 12 -1 12 9 0 10 -5 13
-12 9 -7 -5 -8 -3 -2 7 5 8 7 22 5 33 -2 13 1 16 11 11 10 -6 11 -5 1 6 -15
15 -17 53 -3 44 6 -3 7 1 4 9 -3 9 -11 13 -17 9 -6 -4 -7 -1 -1 8 5 8 7 22 5
33 -2 13 1 16 11 11 10 -6 11 -5 1 6 -15 15 -17 53 -3 44 6 -3 7 1 4 9 -3 9
-11 13 -17 9 -6 -4 -7 -1 -1 8 5 8 7 22 5 33 -2 13 1 16 11 11 10 -6 11 -5 1
6 -15 15 -17 53 -3 44 6 -3 7 1 4 9 -3 9 -11 13 -17 9 -6 -4 -7 -1 -1 8 5 8 7
22 5 33 -2 13 1 16 11 11 10 -6 11 -5 1 6 -15 15 -17 53 -3 44 6 -3 7 1 4 9
-3 9 -11 13 -18 9 -7 -4 -7 -1 1 9 7 8 11 17 8 19 -2 3 -5 21 -7 42 -1 20 -5
37 -9 37 -4 0 -10 8 -14 19 -7 23 -39 61 -52 61 -5 0 -18 8 -29 18 -10 9 -41
28 -69 42 -27 14 -52 28 -55 31 -7 9 -94 52 -99 50 -2 -2 -7 1 -10 7 -8 12
-101 66 -101 58 0 -3 -9 3 -20 14 -11 11 -27 20 -35 20 -8 0 -15 5 -15 11 0 5
-5 7 -10 4 -6 -3 -13 1 -16 9 -3 9 -10 13 -15 10 -5 -3 -9 0 -9 6 0 6 -4 9 -9
5 -5 -3 -15 1 -23 8 -22 21 -95 56 -104 49 -4 -4 -4 -2 -1 4 3 6 -17 22 -46
37 -60 31 -110 60 -117 67 -3 3 -16 11 -30 17 -14 7 -47 25 -75 41 -105 61
-173 100 -250 142 -33 18 -68 40 -77 48 -10 8 -18 12 -18 8 0 -4 -13 2 -29 13
-16 12 -34 21 -41 21 -6 0 -8 5 -4 12 4 6 3 8 -3 5 -5 -3 -26 5 -45 18 -20 13
-38 22 -40 19 -3 -2 -13 5 -22 15 -10 11 -25 17 -34 14 -10 -4 -13 -2 -8 5 4
7 2 12 -4 12 -11 0 -148 77 -160 90 -3 3 -12 6 -20 8 -8 2 -23 11 -32 19 -10
9 -18 12 -18 8 0 -4 -8 -1 -17 7 -10 9 -34 24 -53 33 -19 10 -37 21 -40 24 -7
10 -84 46 -92 43 -5 -1 -8 5 -8 14 0 10 -5 14 -15 10 -9 -3 -18 1 -21 9 -4 8
-10 12 -15 9 -5 -3 -9 -2 -9 3 0 8 -48 33 -63 32 -5 0 -16 8 -25 18 -9 10 -24
19 -32 21 -8 2 -22 10 -30 17 -8 7 -22 15 -30 17 -8 2 -22 10 -30 18 -8 8 -20
16 -26 17 -7 1 -35 16 -63 33 -29 16 -56 30 -61 30 -6 0 -10 4 -10 8 0 5 -16
14 -35 22 -19 8 -35 18 -35 24 0 5 -3 6 -7 3 -3 -4 -15 0 -25 10 -10 9 -18 13
-18 10 0 -4 -9 2 -20 13 -12 12 -25 18 -30 15 -6 -4 -10 -1 -10 4 0 6 -7 11
-15 11 -8 0 -15 3 -15 8 0 4 -18 15 -40 25 -22 9 -40 22 -40 28 0 5 -4 8 -9 5
-7 -5 -45 15 -117 61 -10 7 -36 20 -56 29 -25 11 -35 20 -31 30 3 8 8 12 11
10 3 -3 11 2 19 12 10 11 12 12 8 2 -4 -8 1 -6 10 5 9 11 20 20 25 20 5 0 18
7 28 16 10 9 32 22 49 29 18 8 29 18 27 22 -3 4 0 8 6 8 6 0 43 20 81 45 38
25 74 45 79 45 6 0 10 5 10 10 0 6 7 10 15 10 8 0 15 4 15 9 0 8 28 19 47 19
3 0 10 7 15 16 5 9 26 25 46 35 39 20 134 80 167 106 10 8 25 15 32 15 7 0 13
5 13 10 0 6 7 10 15 10 7 0 18 8 24 18 5 9 12 16 15 15 15 -7 26 -2 20 9 -5 7
-2 9 8 6 8 -4 21 2 28 12 7 10 20 16 28 12 10 -3 13 -1 8 6 -4 7 -1 12 8 12 9
0 16 4 16 10 0 5 3 9 8 8 4 -2 32 14 63 35 31 20 59 37 63 37 7 0 20 10 51 38
8 7 15 11 15 8 0 -6 90 51 118 74 6 6 12 7 12 3 0 -4 5 0 11 10 6 9 14 15 20
12 5 -4 9 -2 9 3 0 5 14 15 30 22 17 7 30 17 30 22 0 5 5 6 10 3 6 -3 10 -1
10 4 0 6 7 11 15 11 8 0 15 4 15 8 0 4 20 18 45 30 25 12 45 27 45 34 0 6 3 8
6 5 4 -3 18 3 32 13 13 11 31 20 38 20 8 0 14 4 14 8 0 9 62 47 73 44 4 -1 7
3 7 9 0 8 4 8 15 -1 8 -7 38 -24 68 -40 84 -43 101 -54 110 -67 4 -7 17 -13
27 -13 11 0 20 -5 20 -12 0 -6 3 -8 7 -5 3 4 12 2 20 -4 16 -14 66 -43 113
-67 19 -9 41 -23 48 -29 7 -7 20 -13 28 -13 8 0 14 -5 14 -11 0 -5 5 -7 10 -4
6 3 10 1 10 -4 0 -6 6 -11 14 -11 8 0 22 -7 30 -16 9 -8 16 -13 16 -9 0 3 13
-3 29 -14 16 -12 34 -21 40 -21 6 0 11 -4 11 -8 0 -5 16 -14 35 -22 19 -8 35
-18 35 -22 0 -5 5 -6 10 -3 6 3 10 2 10 -4 0 -5 10 -13 23 -16 12 -4 33 -17
46 -29 13 -11 20 -14 16 -6 -5 8 8 2 28 -13 20 -15 37 -25 37 -22 0 4 7 -1 16
-9 8 -9 20 -14 25 -11 5 4 9 2 9 -4 0 -5 18 -17 40 -27 22 -10 40 -21 40 -26
0 -4 7 -8 15 -8 8 0 24 -9 35 -20 11 -11 20 -17 20 -14 0 3 17 -4 38 -16 20
-13 62 -36 92 -53 30 -17 57 -34 58 -39 2 -4 7 -6 12 -3 4 2 18 -4 30 -15 12
-11 32 -22 44 -26 11 -4 23 -9 26 -13 5 -7 25 -18 110 -64 30 -17 57 -34 58
-39 2 -4 10 -8 17 -8 7 0 43 -18 79 -40 36 -22 70 -40 76 -40 5 0 10 -5 10
-11 0 -5 4 -8 9 -4 6 3 14 -2 19 -11 5 -9 11 -15 13 -14 9 4 59 -24 59 -32 0
-5 4 -7 9 -3 5 3 15 -1 23 -8 7 -7 36 -23 63 -37 28 -14 53 -29 57 -34 3 -5
14 -11 23 -12 9 -1 25 -10 34 -18 10 -9 23 -16 29 -16 7 0 12 -5 12 -11 0 -6
7 -9 15 -5 8 3 15 2 15 -3 0 -5 14 -14 30 -21 17 -7 30 -17 30 -22 0 -5 4 -7
9 -4 5 3 12 -1 15 -10 4 -9 9 -14 13 -11 3 4 18 -2 32 -12 14 -10 41 -24 59
-32 17 -8 32 -18 32 -23 0 -4 7 -5 16 -2 8 3 12 2 9 -4 -3 -5 6 -12 20 -16 14
-3 22 -11 18 -17 -4 -6 0 -8 10 -4 10 3 17 2 17 -3 0 -6 6 -10 14 -10 7 0 25
-9 40 -21 14 -11 26 -17 26 -12 0 4 5 0 11 -10 6 -9 14 -15 20 -12 5 4 9 1 9
-4 0 -6 9 -11 21 -11 11 0 17 -4 14 -10 -3 -5 1 -10 10 -10 10 0 37 -13 62
-30 24 -16 48 -30 54 -30 5 0 9 -4 9 -10 0 -5 3 -9 8 -9 19 3 22 -2 8 -16 -8
-8 -19 -15 -24 -15 -6 0 -12 -4 -14 -9 -1 -5 -9 -11 -17 -13 -7 -2 -25 -13
-39 -25 -13 -13 -28 -20 -33 -17 -5 3 -9 0 -9 -5 0 -6 -7 -11 -15 -11 -8 0
-15 -4 -15 -10 0 -5 -7 -10 -15 -10 -9 0 -18 -7 -21 -15 -4 -8 -10 -13 -14
-10 -5 3 -14 -1 -22 -8 -7 -7 -21 -16 -30 -20 -10 -3 -18 -11 -18 -17 0 -6 -4
-8 -10 -5 -5 3 -10 3 -10 -2 0 -4 -13 -14 -29 -21 -16 -7 -39 -21 -51 -32 -12
-11 -27 -17 -31 -14 -5 3 -9 0 -9 -6 0 -6 -11 -15 -25 -20 -14 -5 -25 -15 -25
-21 0 -7 -3 -9 -7 -6 -3 4 -15 0 -25 -10 -10 -9 -18 -13 -18 -9 0 4 -7 1 -15
-6 -30 -27 -44 -38 -50 -38 -3 0 -51 -29 -106 -65 -55 -36 -104 -65 -109 -65
-6 0 -10 -4 -10 -10 0 -5 -6 -10 -13 -10 -8 0 -22 -9 -32 -20 -10 -11 -21 -17
-26 -15 -4 3 -10 1 -14 -5 -3 -5 -34 -26 -68 -46 -34 -20 -64 -39 -67 -43 -8
-10 -43 -31 -62 -37 -10 -4 -18 -10 -18 -15 0 -5 -6 -9 -12 -9 -14 0 -55 -40
-56 -54 0 -5 -6 -12 -12 -16 -7 -4 -13 -19 -13 -33 -1 -14 -5 -23 -9 -21 -8 5
-4 -68 6 -84 4 -7 4 -12 1 -12 -3 0 3 -17 15 -37 31 -56 91 -92 160 -96 14 -1
28 -6 32 -12 5 -6 8 -3 8 7 0 11 6 16 20 13 11 -2 26 3 34 11 8 8 19 14 25 14
6 0 11 4 11 10 0 5 3 9 8 8 4 -2 30 12 59 31 28 18 54 32 57 30 3 -2 13 6 22
19 9 13 21 21 27 19 7 -2 22 6 33 19 12 12 25 20 28 17 3 -4 6 -1 6 6 0 7 4
10 8 7 5 -3 18 3 30 14 11 11 26 21 33 22 7 2 20 10 30 18 40 34 49 41 49 35
0 -3 27 12 59 35 33 22 65 40 70 40 6 0 11 5 11 10 0 6 7 10 15 10 8 0 15 5
15 12 0 6 3 8 6 5 4 -4 24 7 44 23 21 17 45 30 55 30 9 0 13 5 10 10 -3 6 1
10 9 10 9 0 16 5 16 11 0 5 5 7 10 4 6 -3 10 -1 10 4 0 6 5 11 11 11 6 0 25
11 42 24 18 14 38 26 46 28 8 2 23 11 33 21 10 9 25 17 34 17 8 0 12 5 9 10
-3 6 3 10 15 10 12 0 19 4 16 8 -3 5 10 15 29 22 19 8 35 18 35 22 0 5 5 6 10
3 6 -3 10 -2 10 3 0 5 12 15 28 23 43 22 116 72 130 89 8 8 11 10 7 3 -5 -11
83 42 112 67 7 5 15 10 18 10 9 0 90 54 93 63 2 4 9 7 15 8 14 0 58 53 61 72
1 6 5 18 10 25 12 19 5 103 -12 137 -16 34 -76 92 -104 101 -10 3 -18 10 -18
16 0 6 -3 8 -6 5 -4 -4 -20 3 -35 14 -16 11 -29 17 -29 13 0 -4 -6 0 -13 11
-8 10 -19 15 -25 11 -7 -4 -12 -2 -12 3 0 6 -18 18 -40 27 -22 9 -37 20 -34
25 3 5 2 9 -3 7 -13 -3 -103 43 -103 54 0 5 -4 6 -10 3 -5 -3 -10 -1 -10 6 0
7 -3 9 -6 6 -4 -4 -19 2 -34 13 -16 11 -33 20 -39 20 -6 0 -11 5 -11 11 0 5
-5 7 -10 4 -6 -3 -13 1 -16 10 -4 9 -13 14 -21 11 -7 -3 -16 1 -19 9 -4 8 -10
12 -15 9 -5 -3 -9 -1 -9 4 0 5 -8 12 -17 15 -10 3 -45 22 -78 42 -33 20 -68
38 -77 42 -10 3 -18 10 -18 15 0 5 -4 7 -8 4 -5 -3 -18 2 -28 12 -11 9 -26 18
-34 20 -8 2 -16 8 -18 13 -2 5 -8 9 -12 9 -5 0 -31 13 -59 29 -27 16 -52 27
-55 24 -3 -4 -6 -1 -6 5 0 7 -7 12 -15 12 -8 0 -15 3 -15 8 0 4 -10 12 -23 18
-61 31 -92 48 -97 53 -3 3 -18 13 -35 21 -16 8 -48 26 -70 39 -22 13 -42 24
-45 24 -3 -1 -17 8 -31 18 -15 10 -38 23 -53 29 -14 5 -26 14 -26 19 0 8 -37
24 -52 22 -3 0 -12 6 -18 14 -7 8 -19 15 -26 15 -8 0 -14 4 -14 8 0 4 -16 14
-35 21 -19 7 -35 16 -35 20 0 4 -16 13 -35 21 -19 8 -35 17 -35 21 0 7 -39 22
-53 20 -4 -1 -10 6 -13 14 -3 8 -10 12 -15 9 -5 -3 -9 -1 -9 3 0 5 -20 17 -45
28 -25 11 -45 23 -45 26 0 3 -16 11 -35 19 -19 8 -35 18 -35 22 0 5 -5 6 -10
3 -6 -3 -13 1 -16 9 -3 9 -15 16 -25 16 -10 0 -19 5 -19 10 0 6 -6 10 -14 10
-8 0 -22 7 -30 16 -9 8 -20 12 -26 9 -6 -4 -9 -1 -8 7 2 7 -4 12 -13 10 -9 -1
-19 5 -23 13 -3 9 -10 13 -16 10 -5 -3 -10 -1 -10 4 0 6 -6 11 -14 11 -7 0
-24 9 -38 19 -14 11 -31 21 -39 23 -7 2 -19 8 -26 13 -30 24 -40 30 -53 33 -8
2 -26 11 -40 20 -14 9 -28 15 -32 14 -5 -1 -8 2 -8 6 0 4 -22 19 -50 33 -27
13 -50 28 -50 32 0 5 -4 6 -9 2 -6 -3 -14 3 -20 12 -6 10 -11 14 -11 10 0 -11
-60 25 -60 36 0 4 -4 6 -9 3 -5 -3 -20 3 -34 14 -14 11 -30 20 -36 20 -6 0
-20 9 -31 20 -11 11 -20 17 -20 14 0 -7 -113 57 -121 68 -3 5 -15 10 -27 11
-11 0 -18 5 -16 9 3 4 -1 8 -9 8 -8 0 -20 7 -27 15 -7 8 -16 12 -21 9 -5 -3
-9 0 -9 5 0 6 -7 11 -15 11 -8 0 -15 5 -15 10 0 6 -7 10 -16 10 -9 0 -30 10
-47 22 -17 12 -37 23 -44 24 -7 1 -20 9 -29 18 -8 9 -22 16 -30 16 -8 0 -14 3
-14 8 0 15 -48 28 -108 31 -41 2 -62 -1 -62 -9z m-1894 -1685 c20 -14 43 -25
50 -25 8 0 14 -4 14 -10 0 -5 9 -10 21 -10 11 0 18 -4 15 -8 -3 -5 10 -15 29
-22 19 -8 35 -18 35 -22 0 -5 5 -6 10 -3 6 3 10 1 10 -5 0 -6 4 -9 8 -6 5 3
18 -2 28 -12 10 -9 42 -28 69 -42 28 -14 52 -28 55 -31 8 -11 94 -53 103 -51
4 1 10 -4 13 -12 3 -9 12 -12 21 -9 11 4 14 2 9 -5 -4 -7 -1 -12 8 -12 9 0 16
-5 16 -11 0 -5 4 -8 9 -4 5 3 15 0 23 -7 7 -7 27 -20 43 -28 17 -8 32 -17 35
-20 3 -3 23 -14 45 -25 22 -11 46 -26 53 -32 7 -7 22 -13 32 -13 10 0 20 -7
24 -15 3 -8 12 -15 21 -15 8 0 15 -5 15 -11 0 -5 5 -7 10 -4 6 3 10 1 10 -5 0
-6 5 -8 10 -5 6 3 10 1 10 -5 0 -6 5 -8 10 -5 6 3 10 1 10 -4 0 -6 7 -11 15
-11 8 0 15 -4 15 -8 0 -5 16 -15 35 -22 20 -8 41 -20 47 -27 5 -7 14 -10 19
-7 5 3 9 0 9 -5 0 -6 5 -11 10 -11 6 0 28 -11 50 -25 22 -14 40 -22 40 -19 0
4 8 -2 18 -13 9 -11 23 -18 29 -16 7 3 16 -2 19 -11 3 -9 13 -16 20 -16 13 0
61 -26 74 -40 12 -13 70 -40 85 -40 9 0 14 -4 11 -8 -3 -5 10 -15 29 -22 19
-8 35 -17 35 -22 0 -4 7 -8 15 -8 8 0 15 -4 15 -9 0 -5 11 -12 25 -15 13 -3
44 -19 67 -34 60 -38 76 -47 136 -78 28 -15 52 -31 52 -36 0 -4 3 -7 8 -6 12
4 82 -34 82 -44 0 -5 6 -8 13 -5 6 2 20 -5 29 -15 9 -11 19 -19 22 -20 20 0
46 -12 46 -20 0 -5 5 -6 10 -3 6 3 10 3 10 -2 0 -4 15 -14 33 -22 17 -8 34
-17 37 -20 6 -7 39 -26 95 -55 22 -12 46 -27 53 -34 8 -7 18 -10 23 -7 5 4 9
2 9 -3 0 -5 21 -20 48 -33 26 -13 49 -26 52 -29 4 -4 28 -18 115 -64 11 -6 22
-14 25 -17 3 -3 20 -12 38 -20 17 -8 32 -16 32 -20 0 -3 16 -11 35 -19 19 -8
35 -18 35 -22 0 -5 5 -6 10 -3 6 3 13 -1 16 -9 3 -9 9 -14 13 -11 4 2 17 -3
29 -11 18 -12 19 -18 9 -28 -6 -8 -15 -12 -19 -9 -5 2 -8 -1 -8 -7 0 -6 -4 -8
-10 -5 -5 3 -10 2 -10 -4 0 -5 -22 -22 -50 -37 -27 -15 -50 -31 -50 -36 0 -5
-4 -6 -10 -3 -5 3 -10 1 -10 -5 0 -6 -4 -8 -10 -5 -5 3 -10 1 -10 -4 0 -6 -5
-11 -11 -11 -28 0 -93 -83 -105 -132 -1 -5 -3 -10 -4 -13 -10 -22 1 -79 23
-124 15 -31 54 -71 61 -63 3 3 6 1 6 -5 0 -6 10 -14 23 -18 29 -9 119 -14 132
-6 6 3 17 6 25 8 8 1 16 7 18 12 2 6 10 11 18 11 8 0 22 7 32 16 33 30 156
102 165 97 5 -3 7 -14 4 -24 -3 -10 -1 -22 4 -25 6 -3 5 -11 -2 -20 -9 -11 -8
-14 2 -14 10 0 10 -3 2 -11 -8 -8 -8 -20 -3 -35 5 -13 6 -25 2 -28 -5 -3 -7
-20 -6 -38 4 -57 6 -113 4 -123 -5 -24 -5 -42 2 -67 3 -15 3 -30 -2 -33 -6 -3
-5 -16 0 -29 5 -13 6 -27 2 -30 -5 -6 -6 -95 -1 -123 1 -4 1 -12 0 -18 -5 -25
-2 -176 4 -184 3 -5 1 -12 -4 -16 -7 -3 -7 -15 -1 -29 5 -13 6 -26 3 -29 -5
-5 -7 -179 -2 -203 1 -5 0 -13 -1 -19 -4 -19 1 -158 5 -166 3 -4 1 -10 -4 -13
-8 -5 -6 -57 4 -83 2 -7 0 -15 -5 -18 -6 -3 -6 -15 0 -29 5 -13 6 -27 3 -30
-7 -7 -6 -153 2 -165 3 -5 1 -12 -4 -16 -7 -3 -7 -15 -1 -29 5 -13 6 -27 3
-30 -4 -3 -5 -38 -4 -77 2 -55 -1 -75 -15 -90 -9 -10 -23 -19 -29 -19 -7 0
-18 -7 -25 -15 -7 -9 -15 -13 -18 -10 -3 2 -10 -2 -16 -10 -6 -7 -17 -15 -25
-17 -7 -2 -25 -13 -39 -25 -14 -13 -31 -23 -38 -23 -8 0 -14 -5 -14 -11 0 -5
-4 -7 -10 -4 -5 3 -10 2 -10 -4 0 -5 -9 -13 -20 -16 -11 -4 -18 -11 -15 -16 3
-5 -1 -6 -9 -3 -9 3 -16 2 -16 -3 0 -5 -20 -20 -45 -32 -25 -12 -45 -27 -45
-32 0 -5 -3 -8 -7 -7 -5 1 -19 -5 -33 -14 -58 -37 -106 -65 -113 -66 -4 -1
-17 -11 -29 -22 -12 -11 -27 -20 -33 -20 -8 0 -11 173 -11 604 0 377 4 602 10
599 5 -4 6 -1 0 8 -12 19 -13 640 -1 632 6 -4 7 -1 1 8 -5 8 -9 44 -11 81 -2
67 -18 113 -53 148 -10 10 -21 16 -24 12 -3 -3 -6 2 -6 11 0 10 -3 16 -7 15
-12 -2 -46 14 -61 29 -8 7 -18 11 -23 8 -5 -4 -9 -2 -9 3 0 5 -21 20 -47 33
-27 13 -50 26 -53 29 -3 3 -22 14 -42 25 -21 11 -38 23 -38 27 0 4 -7 5 -15 2
-8 -4 -15 -1 -15 5 0 11 -47 36 -62 33 -5 -1 -8 2 -8 8 0 5 -7 10 -15 10 -8 0
-15 5 -15 11 0 5 -5 7 -10 4 -6 -3 -13 1 -16 9 -3 9 -13 16 -20 16 -16 0 -65
29 -76 45 -5 6 -8 6 -8 0 0 -6 -3 -6 -8 1 -4 5 -23 18 -42 27 -58 30 -124 67
-130 75 -3 4 -12 8 -20 10 -8 2 -17 8 -18 13 -2 5 -8 7 -13 3 -5 -3 -9 -1 -9
4 0 6 -12 15 -27 21 -33 13 -86 43 -108 61 -8 7 -15 9 -15 4 0 -5 -4 -4 -8 1
-4 6 -27 21 -52 34 -25 14 -47 27 -50 30 -3 3 -31 19 -62 36 -32 16 -58 33
-58 37 0 4 -7 4 -17 1 -11 -4 -14 -3 -9 5 5 8 0 12 -13 12 -10 0 -21 3 -23 8
-1 4 -24 18 -50 31 -27 13 -48 29 -48 34 0 6 -3 8 -6 4 -3 -3 -24 5 -45 19
-21 13 -43 24 -49 24 -5 0 -10 5 -10 11 0 5 -4 8 -9 5 -5 -3 -14 1 -21 9 -7 8
-19 15 -26 15 -8 0 -14 5 -14 10 0 6 -7 10 -15 10 -8 0 -15 5 -15 12 0 6 -3 9
-6 5 -5 -5 -190 97 -204 113 -3 3 -12 6 -20 8 -8 2 -17 8 -18 13 -2 5 -8 7
-13 3 -5 -3 -9 0 -9 6 0 6 -4 9 -9 6 -5 -3 -14 1 -21 9 -7 8 -19 15 -26 15 -8
0 -14 5 -14 11 0 5 -4 7 -10 4 -5 -3 -10 -1 -10 5 0 6 -4 9 -9 6 -5 -3 -12 1
-15 10 -3 8 -10 12 -16 9 -5 -3 -10 -2 -10 2 0 5 -12 14 -27 20 -29 13 -73 38
-117 67 -15 9 -32 14 -38 10 -6 -4 -8 -3 -5 3 3 5 -15 20 -41 33 -26 13 -50
28 -54 34 -4 6 -8 7 -8 2 0 -5 -8 -2 -17 7 -10 8 -25 17 -33 19 -8 2 -20 8
-27 13 -29 24 -40 30 -53 33 -8 2 -17 7 -20 11 -3 4 -20 13 -37 20 -18 8 -33
18 -33 23 0 5 -4 6 -10 3 -5 -3 -10 -2 -10 3 0 5 -20 17 -44 27 -25 10 -43 22
-40 27 3 4 -4 8 -15 8 -12 0 -21 4 -21 8 0 5 -16 15 -35 22 -20 8 -41 20 -47
27 -5 7 -14 10 -19 7 -5 -3 -9 0 -9 5 0 6 -7 11 -15 11 -8 0 -15 5 -15 10 0 6
-3 9 -7 8 -5 -1 -30 10 -56 26 l-49 29 34 21 c18 11 36 25 40 31 4 5 8 6 8 2
0 -5 23 8 50 28 28 20 50 34 50 30 0 -3 9 3 21 14 12 11 34 25 50 31 16 7 29
16 29 21 0 5 7 9 15 9 8 0 15 3 15 8 0 4 15 14 33 21 17 8 37 22 44 30 7 9 13
12 13 8 0 -5 7 -2 15 5 26 24 40 34 50 38 19 7 97 55 117 72 11 10 25 15 29
12 5 -3 9 0 9 5 0 15 5 14 46 -14z"/>
<path d="M9391 6903 c-10 -7 -21 -10 -24 -6 -4 3 -9 -2 -13 -11 -3 -9 -10 -14
-14 -11 -4 2 -18 -4 -30 -15 -12 -11 -31 -22 -41 -25 -11 -4 -19 -11 -19 -16
0 -6 -4 -7 -10 -4 -5 3 -10 2 -10 -4 0 -5 -9 -13 -20 -16 -11 -3 -26 -13 -34
-20 -8 -8 -20 -16 -27 -17 -7 -2 -25 -13 -39 -25 -13 -13 -28 -23 -33 -23 -9
0 -120 -72 -128 -83 -3 -5 -10 -9 -15 -9 -5 0 -32 -15 -60 -34 -28 -19 -56
-34 -63 -34 -6 0 -11 -4 -11 -10 0 -5 -7 -10 -15 -10 -8 0 -15 -4 -15 -10 0
-5 -7 -10 -15 -10 -8 0 -15 -4 -15 -10 0 -5 -7 -10 -15 -10 -8 0 -15 -4 -15
-10 0 -5 -9 -10 -21 -10 -11 0 -17 -4 -14 -10 3 -5 0 -10 -7 -10 -8 0 -33 -14
-56 -31 -23 -17 -42 -27 -42 -22 0 4 -4 3 -8 -2 -7 -11 -93 -68 -102 -69 -3 0
-14 -8 -24 -18 -11 -10 -26 -18 -33 -18 -7 0 -13 -4 -13 -10 0 -5 -7 -10 -15
-10 -8 0 -15 -5 -15 -11 0 -5 -4 -7 -10 -4 -5 3 -10 1 -10 -4 0 -6 -7 -11 -15
-11 -9 0 -18 -7 -21 -15 -4 -8 -10 -13 -14 -10 -4 3 -13 -2 -20 -10 -7 -8 -19
-15 -26 -15 -8 0 -14 -4 -14 -9 0 -5 -13 -14 -30 -21 -16 -7 -30 -17 -30 -22
0 -5 -4 -7 -9 -4 -5 4 -11 2 -13 -2 -1 -4 -32 -26 -68 -47 -36 -22 -74 -47
-84 -57 -10 -9 -22 -15 -26 -13 -10 6 -93 -75 -109 -107 -22 -43 -18 -140 7
-166 7 -8 10 -18 7 -23 -4 -5 0 -9 7 -9 7 0 19 -9 25 -19 7 -11 28 -25 48 -32
19 -7 35 -16 35 -19 0 -4 18 -6 40 -6 22 1 40 5 40 9 0 5 4 6 8 3 5 -3 20 1
35 9 15 8 27 11 27 7 0 -4 5 1 11 11 6 9 14 15 20 12 5 -4 9 -1 9 4 0 6 6 11
13 11 8 0 22 9 32 20 10 11 27 20 37 20 11 0 16 5 13 10 -3 6 -2 10 4 10 6 0
86 48 178 106 92 59 177 111 188 118 11 6 22 13 25 16 10 10 45 31 63 36 9 4
17 10 17 15 0 5 7 9 15 9 8 0 15 5 15 12 0 6 3 9 6 5 4 -3 12 -1 20 6 32 29
42 36 46 31 3 -2 16 6 30 18 14 13 31 24 38 26 8 2 20 11 28 20 9 11 11 12 6
2 -4 -8 4 -5 18 8 13 12 30 22 36 22 7 0 12 4 12 8 0 9 51 36 59 32 2 -1 8 5
13 14 5 9 13 14 19 11 5 -4 12 1 15 9 3 9 10 13 15 10 5 -3 9 -1 9 4 0 5 21
19 46 32 25 13 56 34 67 47 12 12 29 23 38 23 8 0 25 9 36 19 12 11 23 17 27
14 3 -3 8 2 12 11 3 9 10 13 15 10 5 -3 9 0 9 5 0 6 7 11 15 11 8 0 24 9 35
20 11 11 21 19 23 18 3 -4 122 76 125 84 2 5 9 14 15 21 7 7 17 22 23 32 15
26 16 145 2 145 -6 0 -8 3 -5 7 4 3 0 15 -10 25 -9 10 -13 18 -10 18 4 0 -1 8
-10 18 -10 11 -21 17 -25 15 -5 -2 -8 0 -8 5 0 29 -145 49 -179 25z"/>
<path d="M9370 6126 c-41 -21 -141 -84 -165 -103 -5 -5 -22 -14 -37 -20 -16
-7 -28 -17 -28 -23 0 -5 -7 -10 -15 -10 -9 0 -25 -9 -37 -20 -12 -10 -24 -17
-28 -15 -5 3 -11 -2 -14 -11 -3 -8 -10 -12 -16 -9 -5 3 -10 1 -10 -4 0 -6 -7
-11 -15 -11 -8 0 -15 -4 -15 -10 0 -5 -4 -10 -10 -10 -16 0 -100 -57 -93 -64
3 -3 -1 -6 -10 -6 -16 0 -206 -117 -219 -135 -4 -5 -8 -6 -8 -2 0 5 -7 1 -16
-7 -8 -9 -20 -14 -25 -11 -5 4 -9 -1 -9 -10 0 -9 -4 -13 -10 -10 -5 3 -10 1
-10 -5 0 -6 -4 -9 -9 -6 -5 3 -14 -1 -21 -9 -7 -8 -17 -15 -22 -15 -5 0 -18
-9 -30 -20 -12 -11 -28 -20 -35 -20 -7 0 -13 -4 -13 -10 0 -5 -7 -10 -15 -10
-8 0 -15 -5 -15 -11 0 -5 -4 -7 -10 -4 -5 3 -10 1 -10 -4 0 -6 -6 -11 -14 -11
-8 0 -17 -7 -20 -16 -3 -8 -10 -13 -15 -10 -5 3 -20 -5 -35 -19 -14 -13 -26
-22 -26 -19 0 3 -13 -4 -29 -15 -16 -12 -34 -21 -40 -21 -6 0 -11 -4 -11 -9 0
-5 -18 -17 -40 -27 -22 -10 -40 -21 -40 -26 0 -4 -16 -14 -35 -22 -19 -8 -35
-20 -35 -25 0 -6 -7 -7 -17 -4 -11 4 -14 3 -9 -5 4 -7 1 -12 -7 -12 -7 0 -23
-9 -34 -19 -12 -11 -23 -18 -25 -16 -3 3 -28 -17 -57 -43 -36 -32 -52 -55 -53
-74 -2 -16 -5 -28 -9 -28 -3 0 -4 -19 -2 -42 5 -66 6 -68 15 -68 5 0 7 -4 3
-9 -3 -5 6 -21 20 -35 14 -14 22 -26 18 -26 -4 0 15 -12 42 -26 37 -19 63 -24
100 -22 51 2 95 17 95 31 0 5 5 5 10 2 6 -3 10 -1 10 4 0 6 7 11 15 11 8 0 15
5 15 11 0 5 5 7 10 4 6 -3 13 1 16 9 3 9 12 16 19 16 8 0 20 7 28 15 8 8 21
16 28 17 8 2 22 12 32 22 9 10 17 15 17 10 0 -5 4 -4 8 3 4 6 14 13 21 15 8 2
22 10 32 18 39 33 47 39 52 34 2 -2 10 2 17 11 7 8 19 15 26 15 8 0 14 5 14
10 0 6 7 10 15 10 8 0 15 5 15 10 0 6 7 10 15 10 8 0 15 5 15 10 0 6 6 10 13
10 8 0 25 10 38 21 13 12 36 26 52 31 15 6 27 14 27 19 0 5 7 9 15 9 8 0 15 5
15 11 0 5 4 8 9 5 5 -4 11 -3 13 1 4 9 64 53 73 53 7 0 87 52 103 68 8 7 17
10 22 7 4 -3 11 2 14 11 4 9 9 14 12 11 4 -3 12 -1 20 6 29 26 43 37 48 37 3
0 30 16 60 35 30 19 58 35 61 35 3 0 15 9 27 20 12 11 28 20 35 20 7 0 13 5
13 10 0 6 7 10 15 10 8 0 15 4 15 9 0 5 8 12 18 15 34 13 72 37 72 47 0 5 3 8
8 7 9 -3 115 63 120 74 2 5 8 6 13 2 5 -3 9 0 9 5 0 6 7 11 15 11 9 0 18 7 21
15 4 8 9 13 14 10 4 -2 23 13 43 35 19 22 33 40 30 40 -3 0 -1 6 4 13 13 16
14 137 2 137 -6 0 -7 4 -4 10 3 5 -5 21 -19 35 -14 14 -23 25 -20 25 3 0 -1 6
-8 14 -7 8 -16 12 -20 10 -3 -2 -8 1 -10 6 -2 6 -13 12 -26 13 -12 0 -22 5
-22 9 0 18 -96 7 -140 -16z"/>
<path d="M1348 5545 c-3 -3 -18 -8 -33 -11 -58 -10 -124 -59 -125 -92 0 -7 -6
-15 -12 -17 -28 -11 -14 -175 14 -175 6 0 9 -3 5 -6 -8 -8 34 -54 50 -54 7 0
13 -4 13 -9 0 -5 8 -11 18 -14 21 -7 75 -39 83 -50 3 -4 16 -9 27 -10 12 -1
22 -7 22 -14 0 -7 3 -13 8 -12 15 2 52 -14 52 -22 0 -5 5 -9 10 -9 6 0 28 -11
50 -25 22 -14 40 -22 40 -18 0 5 5 0 11 -10 6 -9 14 -15 20 -12 5 4 9 1 9 -4
0 -6 5 -11 10 -11 6 0 28 -11 49 -24 21 -14 42 -22 45 -19 3 4 6 1 6 -5 0 -7
7 -12 15 -12 8 0 15 -4 15 -10 0 -5 4 -10 9 -10 6 0 38 -17 73 -37 35 -21 67
-38 71 -38 4 0 11 -6 16 -13 5 -8 11 -13 15 -13 10 2 70 -31 78 -43 4 -6 10
-7 14 -4 3 4 15 -2 27 -13 11 -10 27 -19 34 -19 7 0 13 -4 13 -10 0 -5 9 -10
20 -10 11 0 20 -4 20 -10 0 -5 7 -10 15 -10 8 0 15 -5 15 -11 0 -5 4 -8 9 -4
5 3 12 1 15 -4 3 -5 29 -21 58 -36 29 -15 64 -37 77 -49 13 -11 20 -14 16 -6
-5 10 -1 8 13 -4 12 -11 22 -15 22 -11 0 4 9 -2 19 -14 11 -12 22 -22 25 -22
18 2 26 0 38 -11 7 -7 33 -23 57 -36 72 -37 105 -56 119 -70 8 -7 17 -10 22
-7 5 3 10 2 12 -3 4 -9 101 -67 107 -63 2 1 7 -1 10 -6 5 -7 30 -22 96 -57 11
-6 23 -15 26 -19 3 -5 9 -8 13 -8 20 3 26 0 21 -9 -3 -5 3 -10 14 -10 12 0 21
-5 21 -11 0 -5 4 -8 9 -5 5 3 14 -1 21 -9 7 -8 19 -15 26 -15 8 0 14 -4 14 -9
0 -5 13 -12 29 -16 16 -3 32 -13 35 -21 3 -8 14 -14 24 -14 11 0 25 -7 32 -15
7 -8 19 -15 27 -15 7 0 16 -6 19 -14 3 -8 12 -12 20 -9 7 3 16 -2 20 -10 3 -8
16 -18 29 -21 13 -3 30 -12 37 -19 22 -20 96 -57 113 -57 9 0 14 -4 11 -8 -3
-5 10 -15 29 -22 19 -8 35 -17 35 -22 0 -4 4 -8 10 -8 8 0 121 -62 210 -116
14 -8 33 -18 43 -21 9 -3 17 -10 17 -15 0 -5 4 -7 9 -3 6 3 14 -2 19 -11 5 -9
12 -15 16 -15 10 2 70 -31 78 -43 4 -6 8 -7 8 -2 0 5 6 4 13 -2 13 -11 70 -43
132 -76 22 -12 45 -26 51 -31 6 -6 30 -19 53 -29 22 -11 41 -23 41 -28 0 -5 4
-6 10 -3 6 3 10 1 10 -5 0 -6 4 -9 9 -6 5 3 11 -1 15 -9 3 -8 12 -12 21 -9 8
3 15 2 15 -4 0 -5 14 -15 30 -22 17 -7 30 -17 30 -22 0 -5 5 -6 10 -3 6 3 13
0 16 -8 3 -8 17 -13 35 -12 16 1 32 -1 34 -5 10 -16 135 21 135 40 0 6 4 9 9
5 5 -3 16 2 24 10 9 8 20 15 26 15 6 0 11 3 11 8 0 4 14 13 32 21 17 8 39 22
50 33 10 10 18 16 18 13 0 -3 20 8 44 25 25 16 49 30 55 30 6 0 11 5 11 10 0
6 7 10 15 10 9 0 18 7 21 15 4 8 10 13 14 10 4 -3 13 2 20 10 7 8 18 15 25 15
8 0 15 3 17 8 2 4 23 20 47 35 24 16 40 23 36 15 -4 -7 2 -4 12 7 10 12 30 27
45 35 15 7 36 21 47 31 10 10 21 16 24 13 2 -2 10 2 17 11 7 8 16 15 21 15 5
0 31 15 57 33 26 18 59 39 75 46 15 8 27 18 27 23 0 5 5 6 10 3 6 -3 10 -1 10
5 0 6 5 8 10 5 6 -3 10 -1 10 5 0 6 8 14 18 17 9 4 23 14 30 22 8 9 10 10 7 3
-6 -11 -3 -11 14 0 12 7 21 16 21 20 0 5 7 8 15 8 8 0 15 5 15 11 0 5 5 7 10
4 6 -3 10 -2 10 2 0 5 17 17 37 28 20 11 51 31 67 45 17 14 27 18 22 10 -6
-12 -5 -12 6 1 7 8 37 29 65 45 29 16 53 32 53 37 0 4 9 7 20 7 11 0 23 7 26
15 4 8 13 15 20 15 8 0 17 7 20 15 4 8 10 12 15 9 5 -3 12 2 15 10 3 9 10 13
15 11 4 -3 17 3 29 15 11 11 20 17 20 13 0 -11 60 58 60 69 0 5 4 6 10 3 6 -3
7 1 4 9 -3 9 -2 16 3 16 5 0 8 12 8 28 -1 15 3 32 7 39 5 6 5 14 -2 18 -5 3
-10 14 -10 24 0 21 -22 71 -32 71 -5 0 -8 7 -8 16 0 8 -4 12 -10 9 -5 -3 -10
-2 -10 3 0 27 -135 63 -164 44 -12 -7 -18 -9 -40 -11 -8 0 -22 -8 -30 -17 -9
-8 -16 -13 -16 -9 0 3 -10 -3 -22 -15 -12 -11 -28 -20 -35 -20 -7 0 -13 -4
-13 -10 0 -5 -6 -10 -13 -10 -7 0 -23 -9 -34 -19 -12 -11 -24 -17 -27 -14 -3
4 -6 2 -6 -4 0 -10 -38 -31 -52 -29 -4 0 -15 -9 -23 -22 -9 -12 -20 -20 -25
-17 -4 3 -13 -2 -20 -10 -7 -8 -16 -13 -20 -10 -4 3 -10 -2 -14 -10 -3 -8 -12
-15 -21 -15 -8 0 -15 -4 -15 -10 0 -5 -7 -10 -15 -10 -8 0 -15 -5 -15 -11 0
-5 -4 -7 -10 -4 -5 3 -10 2 -10 -3 0 -5 -16 -17 -35 -26 -19 -9 -35 -22 -35
-28 0 -6 -3 -8 -6 -5 -4 4 -19 -2 -34 -13 -16 -11 -33 -20 -39 -20 -6 0 -11
-4 -11 -10 0 -5 -7 -10 -15 -10 -8 0 -15 -4 -15 -10 0 -5 -7 -10 -15 -10 -8 0
-15 -4 -15 -10 0 -5 -7 -10 -15 -10 -8 0 -15 -4 -15 -9 0 -8 -37 -24 -52 -22
-5 1 -8 -6 -8 -15 0 -8 -4 -12 -10 -9 -5 3 -10 1 -10 -4 0 -6 -3 -10 -7 -9 -7
2 -89 -48 -103 -62 -3 -3 -21 -14 -40 -24 -19 -11 -37 -23 -40 -27 -3 -4 -12
-9 -20 -11 -16 -3 -31 -14 -61 -40 -10 -10 -21 -18 -24 -18 -3 0 -10 0 -16 0
-5 0 -7 -5 -3 -11 4 -7 1 -10 -7 -7 -7 2 -24 -5 -37 -16 -13 -12 -28 -21 -33
-21 -5 0 -13 -6 -18 -13 -5 -8 -12 -14 -17 -14 -5 0 -32 -15 -60 -34 -28 -19
-56 -34 -63 -34 -6 0 -11 -4 -11 -10 0 -5 -11 -9 -25 -8 -14 1 -25 6 -25 11 0
4 -4 5 -10 2 -5 -3 -10 -2 -10 3 0 5 -14 15 -31 22 -17 7 -36 18 -42 24 -12
11 -28 20 -147 82 -30 16 -59 35 -63 42 -4 6 -17 12 -27 12 -11 0 -20 5 -20
11 0 5 -4 8 -9 4 -6 -3 -14 2 -19 11 -5 9 -13 16 -18 15 -5 0 -45 21 -89 47
-44 25 -84 46 -88 47 -4 0 -11 6 -16 13 -5 8 -10 13 -12 12 -8 -4 -79 34 -79
42 0 5 -4 7 -9 4 -5 -3 -14 1 -21 9 -7 8 -16 12 -21 9 -5 -3 -9 0 -9 5 0 6 -6
11 -14 11 -8 0 -22 10 -30 22 -11 15 -16 18 -16 8 0 -10 -3 -11 -8 -4 -7 11
-46 34 -94 56 -16 7 -28 16 -28 21 0 4 -4 5 -10 2 -5 -3 -10 -1 -10 4 0 6 -7
11 -15 11 -8 0 -15 5 -15 11 0 5 -4 8 -9 4 -5 -3 -13 0 -16 5 -7 12 -55 34
-67 32 -5 -1 -8 5 -8 14 0 10 -5 14 -15 10 -9 -3 -18 1 -21 9 -4 8 -10 12 -15
9 -5 -3 -9 -2 -9 3 0 9 -61 39 -72 35 -5 -1 -8 2 -8 8 0 5 -17 17 -37 27 -21
9 -40 20 -43 23 -3 4 -20 13 -37 21 -18 8 -33 17 -33 21 0 5 -7 8 -15 8 -8 0
-15 5 -15 11 0 5 -4 8 -9 5 -4 -3 -22 5 -39 18 -17 12 -50 31 -72 41 -22 10
-40 22 -40 27 0 5 -4 6 -10 3 -5 -3 -10 -1 -10 5 0 6 -4 9 -9 6 -5 -3 -14 1
-21 9 -7 8 -19 15 -26 15 -8 0 -14 4 -14 9 0 5 -11 12 -25 15 -14 4 -25 11
-25 17 0 6 -4 8 -9 5 -5 -3 -14 1 -21 9 -7 8 -21 15 -31 15 -11 0 -19 4 -19 9
0 4 -34 26 -75 47 -41 21 -75 42 -75 47 0 4 -4 6 -9 2 -5 -3 -16 2 -24 10 -9
8 -20 15 -26 15 -6 0 -11 5 -11 11 0 5 -4 7 -10 4 -5 -3 -10 -1 -10 4 0 6 -4
11 -9 11 -5 0 -52 24 -105 54 -52 30 -97 51 -100 48 -3 -3 -6 3 -6 12 0 11 -5
16 -14 13 -8 -3 -23 3 -35 14 -12 11 -26 17 -31 14 -6 -3 -10 1 -10 9 0 9 -4
15 -8 14 -13 -4 -112 52 -112 63 0 6 -5 7 -10 4 -6 -3 -22 3 -36 14 -15 12
-33 21 -40 21 -7 0 -18 8 -23 18 -6 9 -11 13 -11 9 0 -5 -13 1 -29 12 -15 11
-30 18 -33 16 -3 -3 -13 4 -23 15 -10 11 -26 20 -37 20 -10 0 -18 4 -18 10 0
5 -11 12 -25 16 -14 3 -25 10 -25 16 0 5 -4 6 -10 3 -5 -3 -10 -1 -10 4 0 6
-7 11 -15 11 -8 0 -15 4 -15 8 0 8 -60 36 -72 33 -5 0 -8 3 -8 8 0 5 -21 20
-47 33 -27 13 -51 27 -55 33 -4 5 -8 6 -8 1 0 -5 -8 -2 -18 7 -12 11 -22 13
-32 7 -9 -5 -17 -5 -20 1 -4 5 -9 7 -12 4z"/>
<path d="M9421 5382 c-6 -2 -9 -8 -6 -13 4 -5 0 -6 -8 -3 -12 4 -103 -38 -117
-55 -6 -8 -35 -25 -81 -51 -21 -10 -43 -25 -51 -32 -15 -14 -39 -29 -100 -62
-21 -11 -38 -23 -38 -28 0 -4 -5 -8 -11 -8 -6 0 -30 -13 -54 -30 -24 -16 -46
-30 -50 -30 -3 0 -15 -9 -27 -20 -12 -10 -25 -17 -30 -14 -4 3 -8 0 -8 -6 0
-6 -10 -14 -22 -19 -13 -5 -45 -25 -72 -45 -27 -19 -53 -33 -58 -30 -4 3 -8 1
-8 -3 0 -9 -55 -45 -66 -43 -4 1 -11 -5 -16 -14 -5 -9 -13 -14 -19 -11 -5 4
-9 2 -9 -4 0 -6 -15 -17 -34 -26 -18 -9 -43 -25 -55 -36 -11 -11 -21 -17 -21
-14 0 3 -27 -12 -59 -35 -33 -22 -64 -40 -69 -40 -5 0 -17 -9 -27 -20 -10 -11
-21 -17 -25 -15 -4 3 -11 -2 -14 -11 -3 -8 -10 -12 -16 -9 -5 3 -10 1 -10 -4
0 -6 -5 -11 -10 -11 -12 0 -71 -40 -82 -55 -5 -7 -8 -7 -8 0 0 6 -7 1 -15 -9
-8 -11 -15 -17 -15 -13 0 8 -113 -64 -118 -75 -2 -5 -10 -8 -18 -8 -8 0 -23
-8 -33 -17 -10 -10 -31 -29 -45 -42 -14 -12 -24 -27 -21 -31 3 -5 0 -10 -7
-12 -14 -5 -19 -29 -20 -94 -1 -64 40 -130 98 -158 22 -10 47 -23 58 -28 12
-7 16 -6 11 1 -3 6 -2 11 4 11 5 0 12 -4 15 -9 6 -9 99 18 104 31 2 4 10 8 18
8 8 0 14 5 14 11 0 5 4 8 9 4 6 -3 14 3 20 12 6 10 11 14 11 10 0 -4 16 4 35
19 19 14 35 22 35 18 0 -5 5 -2 10 6 5 8 14 15 20 15 6 0 15 7 20 15 5 8 10
11 10 6 0 -5 9 1 19 13 11 12 22 21 24 19 3 -2 36 17 73 41 38 25 72 44 77 43
4 -1 7 3 7 9 0 5 4 8 9 5 5 -3 11 1 15 9 3 8 12 15 21 15 8 0 15 5 15 10 0 6
4 10 10 10 5 0 56 30 112 66 57 37 103 65 104 63 0 -2 8 4 18 14 10 9 22 15
27 12 5 -4 9 1 9 10 0 9 4 14 9 11 5 -3 14 1 21 9 7 8 16 12 21 9 5 -3 9 0 9
5 0 6 7 11 16 11 8 0 12 5 9 10 -3 6 3 10 14 10 12 0 21 5 21 10 0 6 7 10 15
10 8 0 15 5 15 10 0 6 7 10 15 10 8 0 15 5 15 11 0 5 5 7 10 4 6 -3 10 -1 10
4 0 6 7 11 15 11 8 0 15 5 15 12 0 6 3 9 6 5 3 -3 16 3 28 14 26 23 83 57 109
65 9 4 17 10 17 15 0 5 7 9 15 9 8 0 15 5 15 10 0 6 7 10 15 10 8 0 15 5 15
11 0 5 5 7 10 4 6 -3 10 -1 10 4 0 6 7 11 15 11 8 0 15 4 15 8 0 5 16 16 35
25 19 9 35 22 35 27 0 6 4 9 9 6 5 -4 23 5 39 19 16 14 33 25 37 25 14 0 75
51 75 62 0 6 7 16 16 23 20 14 34 155 15 155 -6 0 -10 3 -10 8 3 19 -3 31 -30
58 -45 44 -62 57 -68 50 -3 -3 -12 2 -20 12 -8 9 -12 12 -9 5 4 -7 -1 -11 -14
-10 -11 1 -20 4 -20 7 0 6 -32 8 -49 2z"/>
<path d="M1359 4776 c-2 -2 -22 -6 -44 -9 -22 -3 -41 -10 -43 -16 -2 -6 -7 -9
-11 -7 -4 3 -22 -8 -40 -24 -18 -17 -29 -30 -24 -30 4 0 3 -4 -2 -8 -18 -13
-35 -62 -35 -102 0 -59 49 -150 80 -150 6 0 10 -4 10 -8 0 -5 12 -15 28 -22
15 -8 39 -22 53 -32 14 -10 29 -15 33 -11 3 3 6 2 6 -4 0 -5 18 -18 40 -28 22
-10 40 -22 40 -27 0 -5 4 -7 9 -4 4 3 23 -6 41 -19 19 -14 40 -25 47 -25 7 0
13 -4 13 -8 0 -5 16 -14 35 -22 19 -8 35 -16 35 -20 0 -3 16 -12 35 -19 19 -7
35 -17 35 -22 0 -6 5 -7 10 -4 6 3 10 1 10 -4 0 -6 7 -11 15 -11 8 0 15 -5 15
-11 0 -5 5 -7 10 -4 6 3 10 3 10 -2 0 -4 15 -15 33 -22 17 -8 60 -31 94 -52
33 -21 64 -35 67 -32 3 4 6 2 6 -3 0 -5 26 -23 58 -39 31 -17 59 -32 62 -35 6
-6 43 -27 95 -54 22 -12 43 -25 47 -31 4 -5 8 -6 8 -2 0 4 10 -1 21 -12 12
-11 34 -23 50 -26 15 -3 30 -13 33 -21 3 -9 10 -12 16 -9 5 3 10 3 10 -2 0 -4
10 -13 23 -19 49 -23 112 -59 115 -66 2 -5 9 -8 17 -8 7 0 18 -6 25 -14 6 -8
18 -12 26 -9 9 3 14 -1 14 -13 0 -9 3 -15 6 -11 3 3 28 -8 55 -24 28 -16 54
-29 59 -29 6 0 10 -3 10 -7 0 -5 20 -17 45 -28 25 -11 45 -23 45 -26 0 -4 12
-12 28 -18 34 -13 86 -44 90 -54 2 -4 7 -5 12 -2 4 3 13 -2 20 -10 7 -8 19
-15 26 -15 8 0 14 -5 14 -10 0 -6 3 -9 8 -8 12 3 62 -25 62 -34 0 -5 4 -7 9
-3 5 3 12 1 16 -5 7 -11 76 -44 88 -42 4 1 6 -3 5 -10 -2 -7 3 -13 10 -14 6
-1 17 -2 23 -3 5 0 7 -6 3 -13 -5 -7 -3 -8 6 -3 7 4 15 4 19 -1 3 -5 31 -22
61 -38 30 -16 62 -35 71 -42 8 -8 20 -14 26 -14 6 0 16 -7 23 -15 7 -9 15 -13
18 -11 3 3 17 -3 32 -14 16 -11 33 -20 39 -20 6 0 11 -4 11 -9 0 -8 37 -24 53
-22 4 1 7 -3 7 -7 0 -5 33 -26 73 -47 39 -21 74 -41 77 -44 3 -3 19 -13 35
-21 17 -8 54 -29 83 -47 28 -18 52 -30 52 -27 0 3 12 -3 28 -14 40 -29 114
-72 135 -79 9 -3 17 -10 17 -15 0 -5 5 -6 10 -3 6 3 10 1 10 -5 0 -6 4 -9 9
-5 5 3 12 1 15 -4 8 -12 244 -143 284 -157 17 -7 32 -9 32 -5 0 4 9 7 20 7 11
0 20 -4 20 -8 0 -5 12 0 27 9 15 10 27 16 28 13 0 -3 25 10 55 29 30 19 56 32
58 30 2 -2 8 4 13 14 6 9 14 15 20 12 5 -4 9 -1 9 4 0 6 7 11 15 11 8 0 15 5
15 10 0 6 7 10 15 10 8 0 15 4 15 9 0 5 8 12 18 15 34 13 72 37 72 47 0 6 4 8
9 5 5 -3 20 4 33 17 14 12 31 23 38 25 7 1 19 9 27 17 8 8 21 15 29 15 8 0 14
5 14 10 0 6 7 10 15 10 8 0 15 5 15 10 0 6 5 10 11 10 5 0 36 17 67 38 31 21
65 41 75 45 9 3 17 11 17 17 0 6 4 9 9 5 6 -3 14 3 20 12 5 10 13 15 16 11 4
-4 16 2 28 12 11 11 37 28 58 38 21 11 36 22 32 26 -3 3 1 6 10 6 9 0 26 9 37
20 11 11 20 18 20 15 0 -3 27 12 59 35 33 22 64 40 69 40 5 0 17 9 27 20 10
11 21 18 25 15 3 -2 19 8 35 23 16 15 31 26 32 24 2 -1 13 4 26 12 12 8 69 43
127 79 58 36 112 71 121 79 9 7 22 14 30 16 40 9 113 138 100 177 -3 11 -11
42 -15 63 -1 7 -10 22 -19 33 -9 10 -17 24 -17 29 0 6 -7 10 -15 10 -7 0 -19
8 -24 18 -6 9 -11 13 -11 7 0 -5 -4 -4 -9 4 -5 8 -25 14 -45 14 -20 0 -36 4
-36 9 0 4 -5 8 -11 8 -5 0 -8 -3 -6 -7 3 -5 -6 -9 -20 -10 -29 -1 -103 -34
-103 -45 0 -5 -7 -8 -15 -8 -8 0 -15 -4 -15 -10 0 -5 -4 -10 -9 -10 -6 0 -39
-19 -75 -41 -35 -23 -67 -41 -71 -40 -4 1 -14 -6 -23 -16 -9 -11 -43 -35 -76
-54 -32 -19 -69 -41 -81 -49 -13 -8 -45 -28 -72 -44 -26 -16 -54 -37 -61 -45
-8 -9 -10 -10 -7 -3 6 11 3 11 -14 0 -12 -7 -21 -16 -21 -20 0 -5 -7 -8 -15
-8 -8 0 -15 -5 -15 -11 0 -5 -4 -7 -10 -4 -5 3 -10 2 -10 -2 0 -5 -20 -19 -45
-33 -25 -14 -45 -28 -45 -32 0 -5 -7 -8 -15 -8 -8 0 -15 -5 -15 -11 0 -5 -4
-8 -8 -5 -5 3 -18 -4 -30 -14 -12 -11 -25 -20 -30 -20 -5 0 -15 -7 -22 -15 -7
-8 -16 -13 -20 -10 -5 3 -10 2 -12 -2 -5 -12 -141 -98 -150 -96 -4 2 -8 -4 -8
-13 0 -8 -4 -12 -10 -9 -5 3 -20 -3 -32 -14 -12 -12 -28 -21 -35 -21 -7 0 -13
-4 -13 -10 0 -5 -5 -10 -11 -10 -6 0 -17 -7 -26 -15 -8 -8 -18 -13 -23 -10 -4
3 -10 -2 -14 -10 -3 -8 -10 -15 -16 -15 -6 0 -34 -15 -63 -34 -39 -26 -59 -33
-79 -29 -16 3 -28 12 -28 19 0 8 -3 14 -7 13 -16 -2 -53 14 -53 23 0 5 -5 6
-10 3 -6 -3 -13 1 -16 9 -3 9 -12 16 -20 16 -8 0 -32 11 -54 25 -22 14 -44 25
-50 25 -5 0 -10 5 -10 12 0 6 -3 9 -6 5 -3 -3 -23 5 -44 18 -21 13 -41 21 -45
17 -4 -4 -5 -2 -3 3 2 6 1 10 -2 10 -3 0 -18 9 -35 20 -16 12 -43 27 -60 35
-16 8 -36 21 -43 28 -7 6 -19 12 -26 12 -8 0 -19 7 -26 15 -7 8 -16 12 -21 9
-5 -3 -9 0 -9 5 0 6 -6 11 -14 11 -8 0 -21 6 -28 13 -7 7 -28 20 -45 28 -18 7
-33 18 -33 22 0 5 -4 6 -9 3 -5 -3 -14 1 -21 9 -7 8 -16 12 -21 9 -5 -3 -9 2
-9 10 0 9 -3 15 -7 14 -15 -4 -53 13 -53 23 0 6 -4 7 -10 4 -5 -3 -10 -1 -10
5 0 6 -4 8 -10 5 -5 -3 -10 -1 -10 4 0 6 -6 11 -14 11 -7 0 -19 7 -26 15 -7 8
-21 15 -31 15 -11 0 -19 5 -19 10 0 6 -6 10 -14 10 -8 0 -16 3 -18 8 -1 4 -26
19 -55 33 -29 15 -49 29 -46 33 4 3 -3 6 -15 6 -12 0 -22 5 -22 10 0 6 -9 10
-20 10 -11 0 -20 5 -20 10 0 6 -9 10 -20 10 -10 0 -23 6 -27 13 -7 11 -38 29
-128 76 -16 9 -31 19 -33 24 -2 4 -10 7 -18 7 -8 0 -23 9 -34 20 -11 11 -20
17 -20 14 0 -3 -15 3 -32 14 -18 11 -55 32 -83 47 -27 15 -52 30 -55 34 -3 3
-27 17 -55 31 -27 13 -52 27 -55 30 -3 3 -23 14 -45 26 -65 34 -90 48 -97 59
-4 6 -8 6 -8 2 0 -5 -7 -1 -16 7 -8 9 -19 14 -24 11 -4 -3 -11 2 -14 11 -3 8
-10 12 -16 9 -5 -3 -10 -1 -10 5 0 6 -4 8 -10 5 -5 -3 -10 -1 -10 4 0 6 -5 11
-11 11 -6 0 -23 9 -38 19 -15 11 -34 21 -42 23 -8 2 -16 6 -19 10 -7 9 -131
78 -152 85 -10 3 -18 9 -18 13 0 5 -16 14 -35 20 -19 6 -33 16 -29 21 3 5 2 9
-3 8 -14 -3 -73 25 -73 34 0 4 -4 5 -10 2 -5 -3 -10 -1 -10 4 0 6 -7 11 -15
11 -8 0 -15 5 -15 11 0 5 -4 7 -10 4 -5 -3 -10 -1 -10 5 0 6 -4 8 -10 5 -5 -3
-10 -2 -10 4 0 5 -10 13 -22 17 -13 4 -25 9 -28 13 -6 8 -50 32 -122 68 -32
15 -58 31 -58 35 0 5 -6 8 -13 8 -8 0 -22 9 -31 19 -10 11 -24 17 -32 14 -8
-3 -14 0 -14 7 0 6 -4 8 -10 5 -5 -3 -10 -2 -10 4 0 6 -17 19 -37 29 -48 23
-115 61 -129 73 -6 5 -14 6 -17 2 -4 -3 -7 -1 -7 6 0 7 -4 9 -10 6 -5 -3 -10
-1 -10 6 0 7 -3 9 -7 6 -3 -4 -13 -1 -21 6 -13 10 -14 9 -7 -3 7 -12 6 -13 -7
-3 -8 7 -17 11 -19 9z"/>
<path d="M1314 4001 c-2 -3 -10 -6 -17 -7 -31 -5 -42 -11 -74 -44 -19 -19 -41
-50 -49 -69 -15 -37 -17 -131 -2 -131 5 0 6 -4 3 -10 -3 -5 -1 -10 4 -10 6 0
10 -4 8 -8 -1 -4 10 -23 26 -41 15 -18 27 -29 27 -25 0 4 7 -1 16 -12 8 -10
12 -13 9 -6 -4 8 16 -3 45 -23 29 -21 59 -38 67 -39 8 -1 19 -9 24 -17 5 -8 9
-11 9 -7 0 4 35 -14 78 -39 42 -25 95 -56 117 -67 22 -12 43 -25 46 -30 4 -5
12 -5 19 -1 9 5 11 4 6 -3 -4 -7 -1 -12 6 -12 8 0 20 -6 27 -12 6 -7 15 -13
19 -14 18 -2 62 -28 62 -37 0 -6 3 -8 6 -4 4 3 21 -5 39 -18 17 -14 39 -25 48
-25 10 0 17 -4 17 -10 0 -5 9 -10 21 -10 11 0 18 -4 15 -8 -3 -5 10 -15 29
-22 19 -8 35 -18 35 -22 0 -5 5 -6 10 -3 6 3 10 1 10 -5 0 -6 5 -8 10 -5 6 3
10 2 10 -4 0 -6 11 -13 25 -17 14 -3 25 -11 25 -17 0 -6 3 -7 6 -4 4 3 18 -3
32 -13 13 -11 31 -20 38 -20 8 0 14 -4 14 -9 0 -5 17 -16 38 -25 38 -17 93
-47 102 -56 3 -3 19 -12 35 -20 17 -8 32 -17 35 -21 3 -3 20 -11 38 -18 17 -8
32 -16 32 -20 0 -3 15 -12 33 -20 17 -8 34 -17 37 -21 3 -3 21 -14 40 -24 82
-41 95 -50 103 -62 4 -7 14 -11 22 -8 8 4 15 1 15 -5 0 -6 7 -11 15 -11 8 0
15 -5 15 -10 0 -6 3 -9 8 -8 12 3 62 -25 62 -34 0 -5 4 -7 9 -4 5 4 11 3 13
-1 1 -5 28 -21 58 -37 30 -16 57 -32 60 -35 3 -3 23 -15 45 -27 22 -11 57 -31
78 -43 37 -21 148 -84 215 -122 17 -10 32 -15 32 -11 0 4 5 0 10 -8 5 -8 13
-15 17 -15 4 0 19 -8 33 -17 52 -33 223 -128 231 -128 5 0 9 -5 9 -11 0 -6 7
-9 15 -5 9 3 15 0 15 -10 0 -8 4 -13 9 -10 5 3 14 -1 21 -9 7 -8 16 -12 21
-10 4 3 12 -2 17 -11 5 -9 13 -16 18 -16 17 1 74 -30 74 -40 0 -5 4 -7 9 -4 4
3 23 -6 41 -19 18 -13 37 -22 41 -19 5 3 9 1 9 -4 0 -5 17 -18 38 -27 20 -10
41 -24 45 -32 5 -7 12 -11 17 -8 5 3 11 1 15 -5 4 -6 11 -8 16 -5 5 4 9 3 9
-2 0 -4 21 -19 48 -33 26 -13 49 -27 52 -30 7 -9 43 -24 53 -22 4 1 7 -3 7 -9
0 -5 19 -19 43 -30 23 -10 51 -26 61 -34 11 -8 26 -15 34 -15 8 0 23 -10 34
-22 11 -13 16 -16 12 -8 -6 12 -5 13 7 4 25 -21 147 -9 165 16 7 9 28 22 48
29 19 8 33 18 30 23 -3 4 4 8 15 8 12 0 21 5 21 10 0 6 7 10 15 10 8 0 15 5
15 10 0 6 7 10 15 10 8 0 15 5 15 10 0 6 6 10 13 10 7 0 22 7 32 15 44 35 125
84 120 72 -4 -7 -1 -5 7 4 12 14 125 91 138 94 15 3 70 41 70 48 0 5 5 5 10 2
6 -3 13 1 16 9 3 9 10 14 14 11 5 -3 13 3 19 12 6 10 11 14 11 9 0 -4 15 3 34
17 18 15 36 23 40 20 3 -4 6 0 6 7 0 7 3 11 6 8 3 -3 17 5 31 18 14 13 30 24
35 24 6 0 24 10 41 23 34 24 63 42 87 54 8 4 20 11 25 15 21 18 119 79 129 81
6 1 13 4 16 7 20 22 64 49 71 44 5 -3 9 -1 9 4 0 10 143 102 159 102 6 0 11 4
11 8 0 5 12 15 28 23 15 8 33 20 40 27 7 6 20 12 28 12 8 0 14 7 14 16 0 8 4
13 9 9 5 -3 18 8 27 25 10 16 22 30 26 30 4 0 7 3 7 8 -4 25 2 42 14 36 9 -5
9 -4 0 6 -8 9 -9 19 -2 32 5 10 6 18 1 18 -5 0 -9 11 -8 23 1 35 -50 109 -92
133 -27 16 -54 22 -99 22 -35 0 -63 -4 -63 -8 0 -7 -29 -18 -47 -18 -3 0 -10
-7 -15 -16 -5 -9 -13 -14 -19 -11 -5 4 -9 1 -9 -5 0 -6 -4 -9 -9 -6 -5 3 -12
-1 -15 -10 -3 -8 -10 -13 -15 -9 -6 3 -14 -3 -20 -12 -6 -10 -11 -13 -11 -8 0
6 -3 5 -8 -1 -4 -6 -43 -33 -87 -59 -44 -27 -81 -52 -83 -57 -2 -4 -9 -8 -16
-8 -7 0 -22 -9 -34 -20 -12 -12 -22 -19 -22 -16 0 3 -63 -35 -140 -84 -77 -50
-145 -90 -150 -90 -6 0 -10 -4 -10 -9 0 -5 -16 -16 -35 -25 -19 -9 -37 -21
-40 -26 -4 -6 -10 -8 -15 -5 -4 3 -10 -2 -14 -10 -3 -8 -12 -15 -21 -15 -8 0
-15 -4 -15 -10 0 -5 -7 -10 -15 -10 -8 0 -15 -5 -15 -12 0 -6 -3 -9 -6 -5 -4
3 -12 1 -20 -6 -32 -29 -44 -37 -44 -32 0 8 -62 -35 -72 -50 -4 -5 -8 -6 -8
-1 0 5 -9 1 -20 -9 -11 -10 -20 -15 -20 -10 0 4 -9 -3 -20 -16 -10 -13 -19
-20 -20 -15 0 4 -16 -4 -35 -18 -19 -15 -35 -23 -35 -19 0 4 -5 0 -11 -9 -5
-10 -17 -18 -24 -18 -8 0 -15 -4 -15 -10 0 -5 -6 -10 -13 -10 -8 0 -24 -9 -37
-20 -13 -11 -29 -20 -36 -20 -7 0 -14 -5 -16 -10 -6 -18 -55 -22 -62 -5 -3 8
-12 15 -21 15 -8 0 -15 5 -15 12 0 6 -3 8 -6 5 -4 -4 -19 2 -34 13 -16 11 -33
20 -39 20 -6 0 -11 5 -11 11 0 5 -4 8 -9 5 -5 -3 -14 1 -21 9 -7 8 -19 15 -26
15 -8 0 -14 5 -14 11 0 5 -4 7 -10 4 -5 -3 -10 -1 -10 4 0 6 -9 11 -20 11 -11
0 -20 5 -20 11 0 5 -4 7 -10 4 -5 -3 -10 1 -10 10 0 9 -4 14 -9 11 -4 -3 -29
8 -55 24 -26 17 -49 30 -52 30 -3 0 -18 9 -34 20 -15 11 -30 17 -34 13 -3 -3
-6 -1 -6 6 0 7 -4 10 -9 7 -5 -3 -11 1 -15 9 -3 8 -10 15 -16 15 -7 0 -42 18
-78 39 -37 21 -71 38 -75 37 -5 0 -13 6 -18 15 -5 9 -20 19 -33 23 -13 3 -48
22 -77 41 -30 19 -58 35 -63 35 -5 0 -24 11 -42 25 -18 14 -38 25 -45 25 -6 0
-18 8 -26 18 -8 9 -11 11 -8 4 6 -11 3 -11 -14 0 -12 7 -21 16 -21 20 0 5 -7
8 -15 8 -8 0 -15 5 -15 11 0 5 -4 8 -9 5 -5 -3 -14 1 -21 9 -7 8 -16 13 -20
10 -5 -3 -16 3 -26 12 -10 10 -20 18 -23 18 -6 1 -23 10 -86 47 -16 9 -38 20
-47 24 -10 3 -18 11 -18 16 0 5 -4 7 -9 4 -5 -3 -14 1 -21 9 -7 8 -19 15 -26
15 -8 0 -14 5 -14 11 0 5 -4 8 -9 4 -5 -3 -16 2 -24 10 -9 8 -22 15 -30 15 -8
0 -18 7 -21 16 -3 8 -10 12 -16 9 -5 -3 -10 -2 -10 3 0 5 -15 16 -32 23 -18 7
-39 19 -46 26 -8 7 -18 11 -23 8 -5 -4 -9 -1 -9 5 0 6 -4 8 -10 5 -5 -3 -10
-1 -10 5 0 6 -13 16 -30 21 -16 6 -30 16 -30 22 0 6 -3 7 -6 4 -4 -3 -18 3
-32 13 -13 11 -29 20 -34 20 -6 0 -22 9 -38 20 -15 11 -30 17 -33 13 -4 -3 -9
2 -13 11 -3 9 -12 16 -20 16 -8 0 -14 5 -14 11 0 5 -4 8 -9 4 -5 -3 -16 1 -23
9 -8 7 -24 16 -36 20 -12 4 -28 13 -34 19 -7 7 -30 20 -50 29 -21 10 -38 23
-38 28 0 6 -4 9 -9 6 -4 -3 -29 8 -54 24 -25 15 -48 26 -51 23 -3 -4 -6 -1 -6
5 0 11 -38 28 -53 24 -5 -1 -6 2 -2 8 3 5 1 10 -4 10 -20 0 -26 3 -38 19 -7 9
-13 12 -13 6 0 -7 -3 -7 -8 0 -4 6 -27 21 -52 34 -80 43 -84 46 -98 59 -7 7
-18 10 -23 7 -5 -4 -9 -1 -9 5 0 6 -11 15 -24 20 -14 5 -55 27 -91 50 -37 22
-73 40 -81 40 -8 0 -17 7 -20 15 -4 8 -15 15 -25 15 -10 0 -19 4 -19 9 0 5
-12 14 -27 20 -27 10 -83 41 -93 51 -6 6 -84 49 -117 64 -13 6 -23 15 -23 19
0 5 -4 5 -10 2 -5 -3 -10 -2 -10 3 0 5 -10 8 -22 8 -13 -1 -27 0 -32 3 -13 6
-56 8 -62 2z"/>
</g>
</svg>
